<?xml version="1.0" encoding="UTF-8"?>
<svg width="277px" height="278px" viewBox="0 0 277 278" version="1.1" xmlns="http://www.w3.org/2000/svg" xmlns:xlink="http://www.w3.org/1999/xlink">
    <!-- Generator: Sketch 43.2 (39069) - http://www.bohemiancoding.com/sketch -->
    <title>Group 6</title>
    <desc>Created with Sketch.</desc>
    <defs>
        <linearGradient x1="79.9034613%" y1="12.9951732%" x2="21.4835113%" y2="88.3903663%" id="linearGradient-1">
            <stop stop-color="#FBDA61" offset="0%"></stop>
            <stop stop-color="#E7963B" offset="49.1171078%"></stop>
            <stop stop-color="#F1C50E" offset="100%"></stop>
        </linearGradient>
        <path d="M3.09707974,148.532553 L9.0736358,144.467877 C11.3184728,142.955864 12.4426968,140.961621 12.4426968,138.970957 C12.4426968,136.976699 11.3184636,134.982446 9.0736358,133.470415 L3.09707974,129.423882 C1.02269002,128.013398 2.7271153e-15,126.367226 2.7271153e-15,124.808062 C2.7271153e-15,123.002349 1.36721085,121.30905 4.05085638,120.228528 L10.7527162,117.505456 C13.7373711,116.298023 15.3113037,114.0971 15.3113037,111.696724 C15.3113037,110.054177 14.575112,108.317348 13.0519587,106.736458 L8.0291793,101.52237 C6.57855637,100.017611 5.88588541,98.5055983 5.88588541,97.1603714 C5.88225886,95.0283252 7.63025915,93.3205061 10.8941723,92.7331062 L18.0058463,91.4785343 C21.6904276,90.8186165 23.7901916,88.4472602 23.7901916,85.5320233 C23.7901916,84.2339413 23.3731373,82.8270825 22.4955111,81.4166013 L18.6586043,75.2815354 C17.7918568,73.8819278 17.382058,72.5765946 17.382058,71.4380476 C17.382058,68.8418835 19.5289781,67.1376931 23.2933361,67.2718489 L30.5246966,67.5039081 C34.8149259,67.6561971 37.5384536,65.1506829 37.5384536,61.5646422 C37.5384536,60.6400322 37.3607524,59.646527 36.9799648,58.6095116 L34.5211598,51.8036358 C34.1367445,50.7412383 33.9554185,49.7694896 33.9554185,48.9028951 C33.9554185,45.6250721 36.570166,43.9063732 40.7116869,44.9397415 L47.7326903,46.6729335 C52.53062,47.86949 56.0157443,45.1971826 56.0157443,40.6575334 C56.0157443,40.226049 55.9831053,39.7800591 55.9214539,39.3195669 L54.9132718,32.1402345 C54.8443673,31.6434834 54.8117283,31.1721113 54.8117283,30.7297501 C54.8117283,26.3858948 57.9958556,24.5620509 62.3912175,26.7122281 L68.9008973,29.8776611 C73.764105,32.2272608 78.0615806,29.7543795 78.4314788,24.3771185 L78.94645,17.1651527 C79.3344915,11.7697858 83.1351086,10.0728527 87.3999452,13.3977991 L93.1117663,17.8359319 C97.3729798,21.1609089 102.076616,19.6235138 103.578009,14.4420656 L105.576242,7.49116647 C107.081261,2.29522208 111.146638,1.42861225 114.631762,5.56580004 L119.284643,11.098976 C122.766144,15.2361638 127.68373,14.724898 130.22957,9.94955827 L133.624024,3.56791579 C136.17349,-1.18930526 140.340407,-1.18930526 142.88987,3.56791579 L146.284324,9.94955827 C148.830164,14.7248919 153.747781,15.2361576 157.229251,11.098976 L161.900248,5.56580004 C165.367226,1.42861225 169.432606,2.29522208 170.937622,7.49116647 L172.935855,14.4420656 C174.437248,19.6235199 179.140884,21.1609089 183.402097,17.8359319 L189.113918,13.3977991 C193.378755,10.072822 197.179369,11.7697582 197.567414,17.1651527 L198.082385,24.3771185 C198.470426,29.7543728 202.749759,32.2272608 207.612966,29.8776611 L214.122646,26.7122281 C218.518039,24.562054 221.702135,26.3858948 221.702135,30.7297501 C221.702135,31.1721144 221.669496,31.6434834 221.600592,32.1402345 L220.59241,39.3195669 C220.527132,39.7800591 220.498119,40.226049 220.498119,40.6575334 C220.498119,45.2008112 223.983244,47.8694992 228.781173,46.6729335 L235.802177,44.9397415 C239.954573,43.9063517 242.558445,45.6250414 242.558445,48.8956194 C242.558445,49.7622169 242.377117,50.7412168 241.992704,51.8036143 L239.533899,58.6094901 C239.15311,59.6465055 238.97541,60.6400108 238.97541,61.5609951 C238.97541,65.1506614 241.702579,67.6561827 246.007313,67.5038836 L253.220527,67.2718244 C256.984879,67.1376652 259.131806,68.8418498 259.131806,71.438023 C259.131806,72.5765639 258.722004,73.8818971 257.855259,75.2815108 L254.018352,81.4165767 C253.140726,82.8270611 252.723672,84.2339229 252.723672,85.5319987 C252.723672,88.4472449 254.823448,90.8185981 258.508017,91.4785097 L265.619691,92.7330816 C268.883589,93.3204815 270.627978,95.0282945 270.627978,97.1603469 C270.627978,98.5055645 269.931681,100.017577 268.484684,101.522345 L263.461905,106.736433 C261.938751,108.317338 261.20256,110.054165 261.20256,111.696699 C261.20256,114.097063 262.776483,116.297999 265.761147,117.505432 L272.463007,120.228503 C275.146659,121.309029 276.513864,123.002336 276.513864,124.808037 C276.513864,126.367186 275.491177,128.013348 273.416784,129.423857 L267.440228,133.47039 C265.195391,134.982403 264.071167,136.976646 264.071167,138.970933 C264.071167,140.961566 265.1954,142.955821 267.440228,144.467853 L273.416784,148.532529 C275.491174,149.935762 276.513864,151.578308 276.513864,153.137451 C276.513864,154.939535 275.146653,156.636462 272.463007,157.727883 L265.761147,160.432824 C262.776492,161.640257 261.20256,163.84118 261.20256,166.241556 C261.20256,167.884102 261.938751,169.620932 263.461905,171.201822 L268.484684,176.41591 C269.931681,177.920669 270.627978,179.436307 270.627978,180.785153 C270.627978,182.9172 268.883604,184.628641 265.619691,185.205174 L258.508017,186.477873 C254.823436,187.126914 252.723672,189.494645 252.723672,192.413517 C252.723672,193.715224 253.140726,195.122083 254.018352,196.539837 L257.855259,202.674903 C258.722007,204.067259 259.131806,205.372593 259.131806,206.507523 C259.131806,209.096436 256.984885,210.807878 253.220527,210.684589 L246.007313,210.434401 C241.702591,210.292989 238.97541,212.79488 238.97541,216.388187 C238.97541,217.312797 239.153111,218.306302 239.533899,219.346943 L241.992704,226.138298 C242.377119,227.200696 242.558445,228.17607 242.558445,229.042665 C242.558445,232.316865 239.954579,234.035564 235.802177,233.016686 L228.781173,231.265363 C223.983244,230.086937 220.498119,232.744742 220.498119,237.295284 C220.498119,237.726768 220.527132,238.172758 220.59241,238.636876 L221.600592,245.798096 C221.669496,246.294847 221.702135,246.766219 221.702135,247.212209 C221.702135,251.552441 218.518008,253.376285 214.122646,251.226108 L207.612966,248.060675 C202.749759,245.711076 198.470429,248.187583 198.082385,253.57933 L197.567414,260.791296 C197.179372,266.186663 193.378755,267.865484 189.113918,264.540507 L183.402097,260.102374 C179.140884,256.777397 174.437248,258.318417 172.935855,263.49624 L170.937622,270.447139 C169.432602,275.643084 165.367226,276.509693 161.900248,272.372506 L157.229251,266.83933 C153.74775,262.702142 148.830164,263.23152 146.284324,267.988747 L142.88987,274.37039 C140.340404,279.145723 136.173487,279.145723 133.624024,274.37039 L130.22957,267.988747 C127.68373,263.231526 122.766114,262.702148 119.284643,266.83933 L114.631762,272.372506 C111.146638,276.509693 107.081289,275.643084 105.576242,270.447139 L103.578009,263.49624 C102.076616,258.318408 97.3729798,256.777397 93.1117663,260.102374 L87.3999452,264.540507 C83.1351086,267.865484 79.3344946,266.186678 78.94645,260.791296 L78.4314788,253.57933 C78.0615714,248.187586 73.764105,245.711076 68.9008973,248.060675 L62.3912175,251.226108 C57.9958249,253.376282 54.8117283,251.552441 54.8117283,247.212209 C54.8117283,246.766219 54.8443673,246.29485 54.9132718,245.798096 L55.9214539,238.636876 C55.9831053,238.172758 56.0157443,237.726768 56.0157443,237.295284 C56.0157443,232.741108 52.53062,230.08694 47.7326903,231.265363 L40.7116869,233.016686 C36.5701599,234.03557 33.9554185,232.313255 33.9554185,229.03542 C33.9554185,228.168822 34.1367463,227.197073 34.5211598,226.138305 L36.9799648,219.34695 C37.3607539,218.306309 37.5384536,217.309178 37.5384536,216.388193 C37.5384536,212.794905 34.8149106,210.293006 30.5246966,210.434407 L23.2933361,210.684596 C19.5289842,210.807877 17.382058,209.096439 17.382058,206.507529 C17.382058,205.372614 17.7918598,204.067281 18.6586043,202.674909 L22.4955111,196.539843 C23.3731373,195.122105 23.7901916,193.715246 23.7901916,192.413523 C23.7901916,189.494651 21.6904153,187.126924 18.0058463,186.47788 L10.8941723,185.20518 C7.6302745,184.628657 5.88588541,182.917221 5.88588541,180.78516 C5.88588541,179.436313 6.57855637,177.920678 8.0291793,176.415916 L13.0519587,171.201828 C14.575112,169.620923 15.3113037,167.884096 15.3113037,166.241562 C15.3113037,163.841198 13.7373803,161.640263 10.7527162,160.43283 L4.05085638,157.727889 C1.36720471,156.636484 2.18169224e-14,154.93955 2.18169224e-14,153.137457 C0,151.578327 1.02268694,149.935787 3.09707974,148.532553 Z" id="path-2"></path>
        <polygon id="path-4" points="0.604 0.396031452 0.604 218.358205 225.6029 218.358205 225.6029 0.396031452 0.604 0.396031452"></polygon>
        <polygon id="path-6" points="0.6028 0.396931296 225.603 0.396931296 225.603 232.356082 0.6028 232.356082 0.6028 0.396931296"></polygon>
        <polygon id="path-8" points="225.603 0.396031452 225.603 218.358205 0.6026 218.358205 0.6026 0.396031452 225.603 0.396031452"></polygon>
        <polygon id="path-10" points="0.604 232.356382 0.604 0.396931296 225.6029 0.396931296 225.6029 232.356382 0.604 232.356382"></polygon>
        <polygon id="path-12" points="0.3865 0.396931296 30.7495 0.396931296 30.7495 72.6210302 0.3865 72.6210302 0.3865 0.396931296"></polygon>
        <polygon id="path-14" points="0.34949171 0.396931296 23.384 0.396931296 23.384 78.5373062 0.34949171 78.5373062 0.34949171 0.396931296"></polygon>
        <polygon id="path-16" points="0.8217 0.396931296 23.8564537 0.396931296 23.8564537 78.5373062 0.8217 78.5373062"></polygon>
        <polygon id="path-18" points="0.4575 0.396931296 30.8215 0.396931296 30.8215 72.6210302 0.4575 72.6210302 0.4575 0.396931296"></polygon>
    </defs>
    <g id="Page-1" stroke="none" stroke-width="1" fill="none" fill-rule="evenodd">
        <g id="Xamarin-Certified-Mobile-developer" transform="translate(-91.000000, -72.000000)">
            <g id="Group-6" transform="translate(91.000000, 72.000000)">
                <g id="Group-2">
                    <g id="Page-1">
                        <mask id="mask-3" fill="white">
                            <use xlink:href="#path-2"></use>
                        </mask>
                        <use id="Mask" fill="url(#linearGradient-1)" xlink:href="#path-2"></use>
                        <g mask="url(#mask-3)">
                            <g transform="translate(-87.000000, -37.993424)">
                                <polygon id="Fill-1" fill="#FBB100" points="0.604 450.528019 450.603 450.528019 450.603 0.606894954 0.604 0.606894954"></polygon>
                                <g id="Group-1036" stroke-width="1" fill="none" transform="translate(0.000000, 0.209964)">
                                    <g id="Group-4" transform="translate(0.000000, 231.959851)">
                                        <mask id="mask-5" fill="white">
                                            <use xlink:href="#path-4"></use>
                                        </mask>
                                        <g id="Clip-3"></g>
                                        <path d="M-376.8951,602.790765 C-498.4241,481.283796 -551.4431,317.219193 -535.9611,158.576652 C-569.5491,108.869256 -595.6551,55.619473 -614.2721,0.396031452 C-692.1481,231.389049 -639.0491,496.80211 -454.9681,680.851253 C-270.8881,864.899397 -5.4291,917.990207 225.6029,840.125685 C170.3729,821.514906 117.1109,795.411424 67.3969,761.829237 C-91.2741,777.309558 -255.3661,724.298733 -376.8951,602.790765" id="Fill-2" fill="#FFC500" mask="url(#mask-5)"></path>
                                    </g>
                                    <g id="Group-10" transform="translate(225.000000, 0.000000)">
                                        <mask id="mask-7" fill="white">
                                            <use xlink:href="#path-6"></use>
                                        </mask>
                                        <g id="Clip-9"></g>
                                        <path d="M681.1748,-448.09714 C497.0948,-632.146283 231.6338,-685.236094 0.6028,-607.373571 C55.8338,-588.758793 109.0968,-562.658311 158.8098,-529.076124 C317.4798,-544.554444 481.5728,-491.54562 603.1028,-370.037651 C724.6298,-248.529683 777.6498,-84.4650802 762.1668,74.1774608 C795.7548,123.882857 821.8608,177.13564 840.4798,232.356082 C918.3548,1.36506372 865.2548,-264.047997 681.1748,-448.09714" id="Fill-8" fill="#D96B16" mask="url(#mask-7)"></path>
                                    </g>
                                    <g id="Group-16" transform="translate(225.000000, 231.959851)">
                                        <mask id="mask-9" fill="white">
                                            <use xlink:href="#path-8"></use>
                                        </mask>
                                        <g id="Clip-15"></g>
                                        <path d="M603.1006,602.790765 C481.5736,724.298733 317.4796,777.309558 158.8096,761.829237 C109.0956,795.411424 55.8356,821.514906 0.6026,840.125685 C231.6366,917.990207 497.0946,864.899397 681.1746,680.851253 C865.2546,496.80211 918.3546,231.389049 840.4776,0.396031452 C821.8626,55.619473 795.7546,108.869256 762.1666,158.576652 C777.6496,317.219193 724.6296,481.283796 603.1006,602.790765" id="Fill-14" fill="#FFC500" mask="url(#mask-9)"></path>
                                    </g>
                                    <g id="Group-22">
                                        <mask id="mask-11" fill="white">
                                            <use xlink:href="#path-10"></use>
                                        </mask>
                                        <g id="Clip-21"></g>
                                        <path d="M-376.8951,-370.037351 C-255.3661,-491.54532 -91.2741,-544.555144 67.3969,-529.075824 C117.1109,-562.658011 170.3729,-588.759493 225.6029,-607.373271 C-5.4291,-685.235794 -270.8881,-632.145984 -454.9681,-448.09684 C-639.0491,-264.048697 -692.1481,1.36436385 -614.2721,232.356382 C-595.6551,177.13594 -569.5491,123.883157 -535.9611,74.1777608 C-551.4431,-84.46578 -498.4241,-248.529383 -376.8951,-370.037351" id="Fill-20" fill="#D96B16" mask="url(#mask-11)"></path>
                                    </g>
                                    <path d="M373.6303,333.202727 C375.5483,332.096918 377.4873,331.0451 379.4483,330.045273 C377.1933,322.809526 374.7203,315.624769 372.0253,308.508001 C366.4803,315.382811 360.7143,322.141641 354.7163,328.764495 C360.9823,330.441205 367.2903,331.91195 373.6303,333.202727" id="Fill-160" fill="#FFD200"></path>
                                    <path d="M362.3803,189.102669 C361.1163,188.540766 359.8593,187.962866 358.6053,187.370968 C358.0543,188.506772 357.5013,189.641575 356.9393,190.774379 C358.7473,190.199479 360.5623,189.637576 362.3803,189.102669" id="Fill-374" fill="#FEA700"></path>
                                    <path d="M358.6049,187.370569 C359.8589,187.963466 361.1169,188.540366 362.3799,189.102269 C372.0009,186.274758 381.7499,184.01015 391.5759,182.289448 C386.6969,175.270663 381.5949,168.361859 376.2789,161.564035 C374.4779,160.781171 372.6909,159.953314 370.9139,159.096462 C367.2089,168.648809 363.1049,178.080177 358.6049,187.370569" id="Fill-378" fill="#FE9D00"></path>
                                    <path d="M317.6537,257.895462 C316.8607,257.495531 316.0677,257.092601 315.2767,256.682671 C313.6737,258.722318 312.0497,260.753967 310.3977,262.769618 C312.7907,261.089909 315.2127,259.468189 317.6537,257.895462" id="Fill-406" fill="#FFCD00"></path>
                                    <path d="M332.892,232.355882 C335.636,236.479168 338.292,240.640448 340.861,244.842721 C351.185,239.832588 361.82,235.671308 372.658,232.355882 C361.82,229.043455 351.185,224.881176 340.861,219.873043 C338.292,224.073316 335.636,228.235595 332.892,232.355882" id="Fill-408" fill="#FFC400"></path>
                                    <path d="M317.6537,257.895462 C325.1767,253.043301 332.9247,248.691055 340.8607,244.842721 C338.2927,240.640448 335.6357,236.479168 332.8917,232.355882 C327.3767,240.640448 321.5057,248.756043 315.2767,256.682671 C316.0677,257.092601 316.8607,257.495531 317.6537,257.895462" id="Fill-410" fill="#FFC900"></path>
                                    <path d="M356.9389,190.774279 C352.0309,200.65157 346.6709,210.359889 340.8609,219.873243 C351.1869,224.882376 361.8199,229.042656 372.6579,232.356082 C387.2049,227.908852 402.1149,224.981359 417.1439,223.5886 C413.1769,216.347853 409.0039,209.191092 404.6169,202.127314 C390.1749,199.510767 375.9879,195.170518 362.3799,189.102569 C360.5599,189.637476 358.7479,190.199379 356.9389,190.774279" id="Fill-414" fill="#FEB500"></path>
                                    <path d="M404.6167,202.127714 C400.4567,195.428874 396.1127,188.812019 391.5777,182.289148 C381.7497,184.00985 372.0017,186.275458 362.3807,189.102969 C375.9877,195.169919 390.1757,199.511167 404.6167,202.127714" id="Fill-418" fill="#FEA700"></path>
                                    <path d="M307.0034,313.742195 C307.4564,313.290273 307.9194,312.84935 308.3764,312.403427 C306.7324,311.675553 305.0874,310.950678 303.4524,310.19181 C304.2104,311.827527 304.9354,313.471242 305.6634,315.115957 C306.1104,314.658037 306.5504,314.195117 307.0034,313.742195" id="Fill-428" fill="#FFD100"></path>
                                    <path d="M303.4526,310.19201 C294.9816,306.271688 286.6556,301.939438 278.4836,297.236252 C271.1966,304.214044 263.7026,310.845896 256.0206,317.136808 C254.3416,319.528394 252.7206,321.950974 251.1456,324.391552 C257.5816,337.121349 262.9346,350.258075 267.1946,363.669753 C268.3256,364.232656 269.4626,364.78556 270.5986,365.335465 C279.1756,347.2216 290.8646,330.216544 305.6636,315.116157 C304.9366,313.470442 304.2106,311.827727 303.4526,310.19201" id="Fill-430" fill="#FFD700"></path>
                                    <path d="M362.3803,275.610095 C360.5623,275.076188 358.7473,274.514285 356.9393,273.940384 C357.5013,275.072188 358.0543,276.208992 358.6053,277.343795 C359.8593,276.751898 361.1163,276.171998 362.3803,275.610095" id="Fill-434" fill="#FFCF00"></path>
                                    <path d="M310.3979,262.769618 C304.1069,270.449289 297.4719,277.942992 290.4959,285.228731 C295.1989,293.399316 299.5309,301.722876 303.4529,310.19241 C305.0869,310.949279 306.7319,311.677153 308.3769,312.404027 C323.4799,297.606588 340.4879,285.919611 358.6049,277.344095 C358.0539,276.208292 357.5019,275.072488 356.9389,273.940684 C343.5249,269.682421 330.3859,264.329348 317.6539,257.895462 C315.2119,259.468189 312.7909,261.089909 310.3979,262.769618" id="Fill-436" fill="#FFD000"></path>
                                    <path d="M278.4838,297.236252 C286.6558,301.939438 294.9818,306.271688 303.4528,310.19201 C299.5308,301.722476 295.1988,293.398916 290.4938,285.228331 C288.5408,287.268977 286.5658,289.295627 284.5598,291.303279 C282.5518,293.307932 280.5248,295.28559 278.4838,297.236252" id="Fill-438" fill="#FFD000"></path>
                                    <path d="M356.9389,273.940484 C358.7479,274.514385 360.5599,275.076288 362.3799,275.610195 C375.9879,269.544245 390.1749,265.202997 404.6169,262.58645 C409.0039,255.524672 413.1769,248.364911 417.1439,241.127164 C402.1149,239.733405 387.2049,236.803912 372.6579,232.355682 C361.8199,235.671108 351.1869,239.832388 340.8589,244.841521 C346.6709,254.354874 352.0309,264.063194 356.9389,273.940484" id="Fill-440" fill="#FFCC00"></path>
                                    <path d="M356.9389,273.940484 C352.0309,264.063194 346.6709,254.354874 340.8589,244.841521 C332.9269,248.690855 325.1769,253.044101 317.6539,257.895262 C330.3859,264.329148 343.5249,269.682221 356.9389,273.940484" id="Fill-442" fill="#FFCC00"></path>
                                    <path d="M305.6635,315.115957 C310.3665,325.743118 314.4665,336.573243 317.9525,347.556342 C321.3175,343.407061 324.9295,339.388756 328.7925,335.525425 C332.6535,331.666093 336.6735,328.055718 340.8235,324.6893 C329.8375,321.204903 319.0075,317.105613 308.3765,312.403427 C307.9195,312.84935 307.4565,313.287274 307.0035,313.742195 C306.5505,314.195117 306.1105,314.658037 305.6635,315.115957" id="Fill-452" fill="#FFD600"></path>
                                    <path d="M305.6635,315.115957 C290.8645,330.214344 279.1755,347.2214 270.5995,365.336265 C279.8905,369.835486 289.3215,373.937776 298.8765,377.642135 C303.9625,367.077963 310.3155,356.970713 317.9525,347.556342 C314.4665,336.573243 310.3665,325.743118 305.6635,315.115957" id="Fill-454" fill="#FFD900"></path>
                                    <path d="M358.6049,277.344195 C363.1049,286.633587 367.2089,296.065955 370.9139,305.617302 C372.6909,304.762449 374.4779,303.931593 376.2789,303.148729 C381.5949,296.352905 386.6969,289.442101 391.5759,282.426316 C381.7499,280.705613 372.0009,278.440006 362.3799,275.610495 C361.1169,276.175398 359.8589,276.751298 358.6049,277.344195" id="Fill-456" fill="#FFD000"></path>
                                    <path d="M340.8237,324.6895 C350.2397,317.053822 360.3467,310.700922 370.9137,305.617801 C367.2087,296.065455 363.1047,286.633087 358.6047,277.343695 C340.4877,285.920211 323.4797,297.606188 308.3747,312.403627 C319.0077,317.105813 329.8377,321.203104 340.8237,324.6895" id="Fill-458" fill="#FFD000"></path>
                                    <path d="M391.5757,282.426316 C396.1127,275.902445 400.4567,269.28559 404.6167,262.587749 C390.1757,265.202297 375.9877,269.543545 362.3807,275.610495 C371.9997,278.440006 381.7497,280.705613 391.5757,282.426316" id="Fill-460" fill="#FFCF00"></path>
                                    <path d="M354.7162,328.762095 C360.7142,322.140242 366.4802,315.382411 372.0252,308.507601 C371.6592,307.541768 371.2862,306.579935 370.9132,305.618101 C360.3472,310.703221 350.2392,317.054122 340.8232,324.6898 C345.4292,326.152547 350.0602,327.514311 354.7162,328.762095" id="Fill-470" fill="#FFD200"></path>
                                    <path d="M332.3842,38.9499583 C331.6402,51.7457435 330.1262,64.5035353 327.8492,77.1523459 C333.3392,75.5156292 338.8632,74.0068903 344.4072,72.6211302 C338.4502,62.0219648 334.4472,50.6239376 332.3842,38.9499583" id="Fill-503" fill="#EC7213"></path>
                                    <g id="Group-510" transform="translate(332.000000, 0.000000)">
                                        <mask id="mask-13" fill="white">
                                            <use xlink:href="#path-12"></use>
                                        </mask>
                                        <g id="Clip-509"></g>
                                        <path d="M30.7495,68.5117415 C18.7265,49.8719678 14.3545,27.7347995 17.6365,6.54946637 C12.9335,2.93109266 8.1855,-0.60229575 3.3955,-4.04869922 C2.7415,-3.89972501 2.0855,-3.75574993 1.4315,-3.60477606 C1.0405,-1.88507372 0.6905,-0.159372415 0.3865,1.57332768 C1.1105,14.0211731 1.1105,26.5020128 0.3865,38.9498583 C2.4465,50.6238377 6.4505,62.0218648 12.4075,72.6210302 C18.4935,71.1002934 24.6085,69.7305305 30.7495,68.5117415" id="Fill-508" fill="#E77113" mask="url(#mask-13)"></path>
                                    </g>
                                    <path d="M363.4995,17.575158 C358.9235,13.8158087 354.3025,10.139445 349.6365,6.54906644 C346.3545,27.7353994 350.7265,49.8725677 362.7495,68.5113416 C368.1285,67.4445262 373.5265,66.4896915 378.9395,65.654836 C368.0405,51.5782725 362.8905,34.4982288 363.4995,17.575158" id="Fill-514" fill="#E67013"></path>
                                    <path d="M378.939,65.654736 C383.82,64.9008665 388.714,64.24498 393.615,63.6800778 C383.835,53.7477969 378.091,41.3379449 376.376,28.4891689 C372.126,24.7748118 367.833,21.1364415 363.499,17.575058 C362.89,34.4981288 368.041,51.5781725 378.939,65.654736" id="Fill-519" fill="#E87013"></path>
                                    <path d="M144.2045,313.742195 C144.6575,314.195117 145.0955,314.658037 145.5425,315.115957 C146.2705,313.471242 146.9975,311.827527 147.7535,310.19181 C146.1205,310.950678 144.4755,311.675553 142.8315,312.403427 C143.2885,312.84935 143.7515,313.290273 144.2045,313.742195" id="Fill-545" fill="#FFD100"></path>
                                    <path d="M142.8315,312.403527 C132.2005,317.105713 121.3685,321.205003 110.3825,324.6894 C114.5345,328.054818 118.5525,331.666193 122.4155,335.528524 C126.2785,339.388856 129.8885,343.407161 133.2555,347.556442 C136.7415,336.573343 140.8395,325.744218 145.5425,315.116057 C145.0955,314.658137 144.6575,314.195217 144.2045,313.742295 C143.7515,313.290373 143.2885,312.84945 142.8315,312.403527" id="Fill-547" fill="#FFD800"></path>
                                    <path d="M305.6635,149.599206 C304.9345,151.242922 304.2105,152.887637 303.4525,154.520354 C305.0875,153.764485 306.7315,153.037611 308.3765,152.309737 C307.9195,151.863814 307.4565,151.42489 307.0035,150.971969 C306.5505,150.519047 306.1105,150.056127 305.6635,149.599206" id="Fill-551" fill="#FE9602"></path>
                                    <path d="M307.0034,150.972069 C307.4564,151.42499 307.9194,151.862914 308.3764,152.310837 C319.0074,147.608651 329.8374,143.51036 340.8234,140.023964 C336.6734,136.658546 332.6534,133.049171 328.7924,129.186839 C324.9294,125.325508 321.3174,121.307203 317.9524,117.156922 C314.4664,128.14102 310.3664,138.970146 305.6634,149.599306 C306.1104,150.056227 306.5504,150.519147 307.0034,150.972069" id="Fill-553" fill="#FD9207"></path>
                                    <path d="M354.7162,135.951169 C360.9822,134.271459 367.2902,132.803713 373.6302,131.510937 C364.0932,126.009889 355.1072,119.18807 346.9482,111.032482 C338.7902,102.875893 331.9702,93.8924484 326.4682,84.3550992 C325.1752,90.6930022 323.7042,97.0009104 322.0252,103.265826 C327.7082,108.411935 333.2942,113.723016 338.7772,119.203067 C344.2592,124.683119 349.5702,130.269152 354.7162,135.951169" id="Fill-555" fill="#FA8706"></path>
                                    <path d="M340.8237,140.024763 C345.4287,138.562017 350.0597,137.199253 354.7167,135.951469 C349.5697,130.269452 344.2597,124.683419 338.7767,119.204367 C333.2967,113.722316 327.7087,108.413235 322.0247,103.266126 C320.7767,107.92132 319.4137,112.550519 317.9527,117.157721 C321.3177,121.307003 324.9287,125.324308 328.7907,129.186639 C332.6537,133.047971 336.6737,136.658346 340.8237,140.024763" id="Fill-557" fill="#FB8C06"></path>
                                    <path d="M346.9487,111.032682 C355.1047,119.18827 364.0917,126.009089 373.6307,131.510137 C376.0267,131.022222 378.4297,130.561301 380.8357,130.130376 C382.4717,124.638327 383.9797,119.118282 385.3667,113.573242 C377.0247,108.887053 369.1777,103.000072 362.0797,95.9043002 C354.9817,88.8075285 349.0937,80.9608867 344.4077,72.6213302 C338.8607,74.0070903 333.3417,75.5158292 327.8487,77.1525459 C327.4157,79.5581295 326.9567,81.958714 326.4667,84.356299 C331.9697,93.8926484 338.7927,102.877093 346.9487,111.032682" id="Fill-559" fill="#F98606"></path>
                                    <path d="M374.6889,83.2967824 C370.1029,78.711576 366.1259,73.7484351 362.7499,68.5113416 C356.6089,69.7301306 350.4939,71.0998935 344.4079,72.6206303 C349.0929,80.9611866 354.9819,88.8078285 362.0799,95.9036003 C369.1769,103.000372 377.0249,108.887353 385.3669,113.574542 C386.8879,107.489595 388.2569,101.373653 389.4779,95.2347161 C384.2399,91.8583005 379.2749,87.8819887 374.6889,83.2967824" id="Fill-561" fill="#F98206"></path>
                                    <path d="M389.4761,95.2346161 C390.5441,89.8555471 391.4991,84.4594811 392.3331,79.0484177 C389.8611,77.1327493 387.4681,75.0611079 385.1971,72.7915007 C382.9251,70.5208937 380.8531,68.1283078 378.9391,65.654736 C373.5271,66.4905913 368.1281,67.4444262 362.7491,68.5112416 C366.1261,73.7483351 370.1031,78.711476 374.6891,83.2966824 C379.2751,87.8818888 384.2401,91.8572007 389.4761,95.2346161" id="Fill-563" fill="#F77E07"></path>
                                    <path d="M195.185,317.137108 C187.503,310.846196 180.009,304.213345 172.722,297.236552 C164.552,301.939738 156.226,306.271988 147.753,310.19231 C146.997,311.827027 146.271,313.470742 145.542,315.116457 C160.343,330.216844 172.031,347.2219 180.609,365.335765 C181.746,364.78486 182.88,364.232956 184.013,363.670053 C188.271,350.258375 193.624,337.123648 200.062,324.391852 C198.486,321.950274 196.867,319.528694 195.185,317.137108" id="Fill-575" fill="#FFD900"></path>
                                    <path d="M133.2553,347.556642 C140.8923,356.971013 147.2453,367.077264 152.3293,377.642435 C161.8843,373.938076 171.3183,369.834786 180.6093,365.335565 C172.0303,347.2217 160.3433,330.216644 145.5443,315.114258 C140.8393,325.744418 136.7413,336.573543 133.2553,347.556642" id="Fill-577" fill="#FFDB00"></path>
                                    <path d="M225.603,259.092454 C221.722,262.544857 217.781,265.890278 213.777,269.119719 C217.914,273.833903 221.857,278.659068 225.603,283.586215 C229.351,278.659068 233.294,273.833903 237.431,269.119719 C233.427,265.890278 229.484,262.544857 225.603,259.092454" id="Fill-581" fill="#FFCE00"></path>
                                    <path d="M177.1069,294.676195 C183.6889,301.854953 189.7199,309.357654 195.1849,317.137308 C197.2029,318.789022 199.2319,320.410741 201.2729,322.015463 C208.1789,308.68877 216.2929,295.827996 225.6029,283.586115 C221.8549,278.658968 217.9139,273.835802 213.7749,269.119619 C202.0329,278.592979 189.7769,287.111505 177.1069,294.676195" id="Fill-583" fill="#FFD000"></path>
                                    <path d="M172.7221,297.236252 C180.0091,304.214044 187.5031,310.845896 195.1851,317.136808 C189.7201,309.357154 183.6911,301.854453 177.1071,294.675695 C175.6521,295.544545 174.1891,296.392398 172.7221,297.236252" id="Fill-585" fill="#FFD100"></path>
                                    <path d="M252.3432,232.355882 C255.7962,236.23721 259.1422,240.178528 262.3722,244.182835 C267.0892,240.045551 271.9132,236.104233 276.8412,232.355882 C271.9132,228.61053 267.0892,224.669213 262.3722,220.532929 C259.1422,224.536236 255.7962,228.476554 252.3432,232.355882" id="Fill-587" fill="#FFC500"></path>
                                    <path d="M225.603,259.092454 C229.484,262.544857 233.427,265.890278 237.431,269.119719 C241.285,264.728479 245.289,260.420225 249.48,256.22995 C253.671,252.038675 257.98,248.035368 262.373,244.183035 C259.142,240.178728 255.796,236.23741 252.343,232.356082 C248.177,237.038272 243.867,241.640475 239.378,246.128698 C234.888,250.616921 230.287,254.926175 225.603,259.092454" id="Fill-589" fill="#FFCA00"></path>
                                    <path d="M317.6537,206.820302 C315.2127,205.243575 312.7907,203.625855 310.3977,201.944146 C312.0487,203.959797 313.6737,205.989446 315.2767,208.031092 C316.0677,207.621163 316.8607,207.220233 317.6537,206.820302" id="Fill-591" fill="#FEB100"></path>
                                    <path d="M262.3725,220.532729 C267.0895,224.669013 271.9135,228.61033 276.8415,232.355682 C289.0855,223.048293 301.9485,214.937697 315.2765,208.030892 C313.6735,205.989246 312.0505,203.960597 310.3975,201.943946 C302.6165,196.477892 295.1125,190.450935 287.9335,183.871074 C280.3665,196.536882 271.8475,208.789761 262.3725,220.532729" id="Fill-593" fill="#FEB400"></path>
                                    <path d="M303.4526,154.521254 C299.5306,162.991788 295.1986,171.315347 290.4936,179.484933 C297.4726,186.770672 304.1066,194.263375 310.3976,201.944046 C312.7906,203.625755 315.2126,205.243475 317.6536,206.820202 C330.3866,200.385316 343.5246,195.033242 356.9386,190.773979 C357.5016,189.641176 358.0546,188.507372 358.6046,187.370569 C340.4876,178.793053 323.4796,167.107076 308.3766,152.310637 C306.7316,153.038511 305.0876,153.764385 303.4526,154.521254" id="Fill-595" fill="#FE9F00"></path>
                                    <path d="M310.3979,201.944146 C304.1069,194.262476 297.4719,186.770772 290.4939,179.485033 C289.6499,180.95078 288.8019,182.414526 287.9329,183.868275 C295.1129,190.451135 302.6169,196.479092 310.3979,201.944146" id="Fill-597" fill="#FEAA00"></path>
                                    <path d="M308.3764,152.310637 C323.4784,167.107076 340.4874,178.793053 358.6054,187.370569 C363.1054,178.080177 367.2084,168.648809 370.9134,159.096462 C360.3474,154.012342 350.2394,147.660442 340.8234,140.023764 C329.8374,143.51016 319.0054,147.608451 308.3764,152.310637" id="Fill-599" fill="#FE9B00"></path>
                                    <path d="M354.7162,135.951169 C360.7142,142.573022 366.4802,149.329853 372.0252,156.207662 C374.7202,149.087895 377.1932,141.905138 379.4482,134.67039 C377.4882,133.670563 375.5482,132.616746 373.6302,131.510937 C367.2902,132.803713 360.9822,134.271459 354.7162,135.951169" id="Fill-601" fill="#FE9504"></path>
                                    <path d="M340.8237,140.024763 C350.2397,147.660442 360.3467,154.012342 370.9137,159.096462 C371.2867,158.134629 371.6597,157.171796 372.0247,156.207962 C366.4797,149.330153 360.7147,142.573322 354.7167,135.951469 C350.0597,137.199253 345.4287,138.562017 340.8237,140.024763" id="Fill-603" fill="#FE9603"></path>
                                    <path d="M237.4311,269.120019 C233.2941,273.836202 229.3511,278.659368 225.6031,283.586515 C234.9151,295.828396 243.0271,308.68817 249.9331,322.014863 C251.9741,320.411141 254.0051,318.789422 256.0211,317.136708 C261.4881,309.357054 267.5171,301.854353 274.0991,294.676595 C261.4291,287.110905 249.1731,278.593379 237.4311,269.120019" id="Fill-611" fill="#FFD000"></path>
                                    <path d="M225.603,283.586315 C216.292,295.828196 208.179,308.68797 201.273,322.015663 C209.201,328.239586 217.318,334.112569 225.603,339.627615 C233.888,334.112569 242.005,328.239586 249.933,322.015663 C243.027,308.68797 234.916,295.828196 225.603,283.586315" id="Fill-613" fill="#FFD200"></path>
                                    <path d="M287.933,280.84359 C295.113,274.260729 302.617,268.235772 310.398,262.769718 C312.05,260.754067 313.673,258.722418 315.277,256.682771 C301.949,249.777967 289.085,241.666371 276.841,232.358982 C271.913,236.104333 267.089,240.045651 262.372,244.182935 C271.847,255.921903 280.367,268.176782 287.933,280.84359" id="Fill-615" fill="#FFCC00"></path>
                                    <path d="M237.4311,269.120019 C249.1731,278.593379 261.4291,287.110905 274.0991,294.676595 C276.2941,292.28201 278.5361,289.919419 280.8551,287.59982 C283.1751,285.280222 285.5401,283.03761 287.9331,280.843989 C280.3671,268.177182 271.8471,255.925303 262.3721,244.183335 C257.9801,248.035668 253.6711,252.038975 249.4801,256.22925 C245.2881,260.420524 241.2851,264.727779 237.4311,269.120019" id="Fill-617" fill="#FFCE00"></path>
                                    <path d="M315.2768,208.030992 C321.5058,215.95862 327.3788,224.073216 332.8918,232.355782 C335.6358,228.235495 338.2928,224.073216 340.8588,219.872943 C332.9268,216.021609 325.1768,211.671362 317.6538,206.820202 C316.8608,207.220133 316.0658,207.622063 315.2768,208.030992" id="Fill-619" fill="#FEBD00"></path>
                                    <path d="M276.8412,232.355882 C289.0852,241.666271 301.9482,249.777867 315.2772,256.682671 C321.5052,248.756043 327.3762,240.640448 332.8922,232.355882 C327.3762,224.073316 321.5052,215.95872 315.2772,208.031092 C301.9482,214.935897 289.0852,223.047493 276.8412,232.355882" id="Fill-621" fill="#FFC400"></path>
                                    <path d="M340.8608,219.872743 C346.6718,210.359389 352.0328,200.65107 356.9388,190.773779 C343.5248,195.033042 330.3858,200.385116 317.6538,206.820002 C325.1768,211.671162 332.9248,216.023409 340.8608,219.872743" id="Fill-623" fill="#FEB300"></path>
                                    <path d="M256.0209,317.137108 C263.7029,310.846196 271.1969,304.213345 278.4839,297.236552 C277.0189,296.392698 275.5539,295.543845 274.0989,294.675995 C267.5169,301.854753 261.4879,309.357454 256.0209,317.137108" id="Fill-625" fill="#FFD100"></path>
                                    <path d="M290.4955,285.228631 C297.4725,277.942892 304.1065,270.449189 310.3975,262.769518 C302.6185,268.235572 295.1125,274.263528 287.9325,280.84339 C288.8025,282.299138 289.6495,283.762884 290.4955,285.228631" id="Fill-627" fill="#FFCF00"></path>
                                    <path d="M280.8569,287.60022 C278.5369,289.918819 276.2949,292.283409 274.0989,294.675995 C275.5539,295.543845 277.0189,296.394698 278.4839,297.238552 C280.5249,295.28289 282.5519,293.308232 284.5579,291.301579 C286.5659,289.294927 288.5409,287.269277 290.4959,285.228631 C289.6519,283.761884 288.8019,282.299138 287.9329,280.84339 C285.5409,283.03901 283.1749,285.280622 280.8569,287.60022" id="Fill-629" fill="#FFD000"></path>
                                    <path d="M88.8276,275.610095 C90.0896,276.171998 91.3486,276.751898 92.6016,277.343795 C93.1516,276.208992 93.7066,275.072188 94.2676,273.940384 C92.4586,274.514285 90.6456,275.076188 88.8276,275.610095" id="Fill-657" fill="#FFCF00"></path>
                                    <path d="M92.601,277.344195 C91.349,276.751298 90.091,276.175398 88.827,275.610495 C79.206,278.440006 69.457,280.705613 59.631,282.426316 C64.51,289.442101 69.613,296.352905 74.928,303.148729 C76.729,303.931593 78.515,304.762449 80.294,305.617302 C83.998,296.065955 88.101,286.633587 92.601,277.344195" id="Fill-659" fill="#FFD000"></path>
                                    <path d="M268.8647,95.6041521 C268.3297,97.4228373 267.7687,99.2355236 267.1947,101.044211 C268.3257,100.482308 269.4627,99.9284037 270.5967,99.3784988 C270.0057,98.1257157 269.4267,96.8669336 268.8647,95.6041521" id="Fill-663" fill="#F98406"></path>
                                    <path d="M275.6811,66.4129048 C282.7011,71.2910604 289.6111,76.3931773 296.4081,81.7072575 C286.6381,59.2251489 282.4951,34.8883613 283.9641,10.8305254 C282.4991,11.3484357 281.0361,11.8703454 279.5761,12.404253 C280.1071,30.464127 278.8061,48.5659938 275.6811,66.4129048" id="Fill-665" fill="#E97113"></path>
                                    <path d="M270.5991,99.3778989 C279.8901,94.8786777 289.3241,90.7763878 298.8761,87.0720289 C298.0211,85.2943366 297.1911,83.5086457 296.4081,81.7069576 C289.6111,76.3928774 282.6991,71.2907605 275.6811,66.4126048 C273.9601,76.2379042 271.6951,85.985217 268.8651,95.6035522 C269.4291,96.8673335 270.0051,98.1251158 270.5991,99.3778989" id="Fill-667" fill="#F77E07"></path>
                                    <path d="M296.4077,81.7071575 C298.2027,83.1099147 299.9877,84.5286692 301.7667,85.9614212 C308.8867,83.2668876 316.0697,80.7933157 323.3077,78.5377061 C311.2147,54.8128126 306.9777,28.1184331 310.6027,2.31189984 C301.6557,4.87545612 292.7727,7.71496464 283.9627,10.8304254 C282.4957,34.8882613 286.6377,59.2250489 296.4077,81.7071575" id="Fill-669" fill="#E97212"></path>
                                    <path d="M301.767,85.9613212 C299.988,84.5285692 298.203,83.1098147 296.408,81.7070575 C297.191,83.5087457 298.021,85.2954364 298.876,87.0721289 C299.839,86.6981936 300.802,86.326258 301.767,85.9613212" id="Fill-671" fill="#F77F07"></path>
                                    <g id="Group-675" transform="translate(309.000000, 0.000000)">
                                        <mask id="mask-15" fill="white">
                                            <use xlink:href="#path-14"></use>
                                        </mask>
                                        <g id="Clip-674"></g>
                                        <path d="M14.308,78.5373062 C15.82,78.0663877 17.333,77.6044676 18.849,77.1525459 C21.126,64.5037352 22.64,51.7459434 23.384,38.9501582 C21.203,26.593297 21.203,13.929489 23.384,1.57362762 C23.29,-0.0460920221 23.201,-1.66481184 23.081,-3.28353166 C15.886,-1.59382413 8.726,0.271852946 1.603,2.31249974 C-2.022,28.119033 2.216,54.8134125 14.308,78.5373062" id="Fill-673" fill="#EC7312" mask="url(#mask-15)"></path>
                                    </g>
                                    <path d="M332.3842,1.57362762 C330.2022,13.929489 330.2042,26.5942969 332.3842,38.9501582 C333.1112,26.5023128 333.1112,14.0214731 332.3842,1.57362762" id="Fill-676" fill="#E06D14"></path>
                                    <path d="M96.4897,328.762095 C90.4927,322.140242 84.7257,315.382411 79.1827,308.507601 C76.4877,315.624369 74.0137,322.807126 71.7577,330.044873 C73.7187,331.0447 75.6587,332.096518 77.5767,333.202327 C83.9157,331.91155 90.2237,330.442805 96.4897,328.762095" id="Fill-678" fill="#FFD300"></path>
                                    <path d="M133.5522,257.895462 C135.9952,259.468189 138.4152,261.089909 140.8082,262.769618 C139.1572,260.753967 137.5342,258.722318 135.9292,256.682671 C135.1402,257.092601 134.3472,257.495531 133.5522,257.895462" id="Fill-682" fill="#FFCD00"></path>
                                    <path d="M147.7534,310.19201 C151.6754,301.722476 156.0074,293.398916 160.7124,285.228331 C153.7354,277.942592 147.0994,270.448889 140.8084,262.769218 C138.4154,261.090509 135.9954,259.468789 133.5524,257.895062 C120.8194,264.328948 107.6814,269.682021 94.2694,273.940284 C93.7064,275.072088 93.1514,276.208892 92.6014,277.343695 C110.7184,285.920211 127.7284,297.606188 142.8314,312.403627 C144.4764,311.676753 146.1204,310.950878 147.7534,310.19201" id="Fill-684" fill="#FFD000"></path>
                                    <path d="M142.8315,312.403527 C127.7275,297.606088 110.7205,285.920111 92.6025,277.344595 C88.1025,286.633987 83.9975,296.064355 80.2925,305.617701 C90.8605,310.702821 100.9685,317.053722 110.3825,324.6894 C121.3685,321.205003 132.2005,317.105713 142.8315,312.403527" id="Fill-686" fill="#FFD000"></path>
                                    <path d="M110.3842,324.6895 C100.9682,317.053822 90.8592,310.700922 80.2932,305.617801 C79.9192,306.580635 79.5482,307.541468 79.1832,308.507301 C84.7262,315.382111 90.4922,322.139942 96.4892,328.761795 C101.1462,327.514011 105.7772,326.151247 110.3842,324.6895" id="Fill-688" fill="#FFD200"></path>
                                    <path d="M198.8627,232.355882 C195.4097,228.476554 192.0657,224.536236 188.8337,220.532929 C184.1187,224.669213 179.2947,228.61053 174.3647,232.355882 C179.2947,236.104233 184.1187,240.045551 188.8337,244.182835 C192.0657,240.178528 195.4097,236.23721 198.8627,232.355882" id="Fill-690" fill="#FFC500"></path>
                                    <path d="M188.8334,244.182935 C184.1184,240.045651 179.2924,236.104333 174.3644,232.355982 C162.1204,241.665371 149.2594,249.777967 135.9314,256.682771 C137.5324,258.725418 139.1574,260.754067 140.8084,262.769718 C148.5894,268.235772 156.0934,274.263728 163.2724,280.84359 C170.8394,268.176782 179.3604,255.921903 188.8334,244.182935" id="Fill-692" fill="#FFCC00"></path>
                                    <path d="M140.808,262.769618 C147.099,270.449289 153.736,277.942992 160.712,285.228731 C161.556,283.762984 162.404,282.299238 163.273,280.84349 C156.093,274.263628 148.589,268.235672 140.808,262.769618" id="Fill-694" fill="#FFCF00"></path>
                                    <path d="M225.603,205.622209 C229.484,202.168807 233.427,198.824386 237.431,195.595945 C233.294,190.879761 229.351,186.055596 225.603,181.127449 C221.857,186.055596 217.914,190.879761 213.777,195.595945 C217.781,198.824386 221.722,202.168807 225.603,205.622209" id="Fill-696" fill="#FEA800"></path>
                                    <path d="M225.603,205.622209 C221.722,202.168807 217.781,198.824386 213.777,195.595945 C209.921,199.986185 205.917,204.293439 201.726,208.483714 C197.535,212.675988 193.228,216.679296 188.833,220.532629 C192.066,224.535936 195.412,228.476254 198.863,232.355582 C203.031,227.673393 207.339,223.074189 211.83,218.583966 C216.318,214.096743 220.919,209.788488 225.603,205.622209" id="Fill-698" fill="#FEB900"></path>
                                    <path d="M251.1459,140.322512 C250.7459,141.115375 250.3429,141.909237 249.9329,142.699101 C251.9739,144.302823 254.0049,145.925542 256.0209,147.576256 C254.3409,145.183671 252.7199,142.764089 251.1459,140.322512" id="Fill-700" fill="#FE9406"></path>
                                    <path d="M274.0991,170.037069 C267.5171,162.858311 261.4881,155.35561 256.0211,147.575956 C254.0051,145.926242 251.9741,144.302523 249.9351,142.6998 C243.0271,156.025494 234.9151,168.886268 225.6031,181.128149 C229.3511,186.055296 233.2941,190.879461 237.4311,195.594645 C249.1731,186.121285 261.4291,177.601759 274.0991,170.037069" id="Fill-702" fill="#FE9B00"></path>
                                    <path d="M256.0209,147.576156 C263.7029,153.866068 271.1969,160.501919 278.4839,167.476712 C286.6559,162.773526 294.9819,158.443275 303.4529,154.520954 C304.2099,152.887237 304.9369,151.243522 305.6639,149.598806 C290.8649,134.49842 279.1749,117.493363 270.5989,99.377499 C269.4619,99.9284037 268.3259,100.481308 267.1949,101.044211 C262.9349,114.454889 257.5819,127.591616 251.1459,140.323412 C252.7199,142.764989 254.3409,145.18457 256.0209,147.576156" id="Fill-704" fill="#FD9006"></path>
                                    <path d="M278.4838,167.477012 C271.1968,160.501219 263.7028,153.866368 256.0208,147.576456 C261.4878,155.35611 267.5168,162.858811 274.0988,170.037569 C275.5538,169.167719 277.0188,168.320866 278.4838,167.477012" id="Fill-706" fill="#FE9800"></path>
                                    <path d="M317.9526,117.156622 C310.3156,107.743251 303.9606,97.6360004 298.8766,87.071829 C289.3236,90.7761878 279.8896,94.8794776 270.5986,99.377699 C279.1756,117.493563 290.8646,134.49862 305.6636,149.599006 C310.3666,138.969846 314.4646,128.14072 317.9526,117.156622" id="Fill-708" fill="#FC8D06"></path>
                                    <path d="M326.4662,84.3555991 C325.3612,82.437931 324.3082,80.4972669 323.3082,78.5366063 C316.0712,80.7932157 308.8862,83.2657877 301.7672,85.9613212 C308.6442,91.5043617 315.4032,97.2683641 322.0272,103.266326 C323.7042,97.0014103 325.1752,90.6935021 326.4662,84.3555991" id="Fill-710" fill="#F98206"></path>
                                    <path d="M317.9526,117.156622 C319.4136,112.551419 320.7766,107.92122 322.0246,103.266026 C315.4016,97.269064 308.6436,91.5040618 301.7666,85.9610212 C300.8026,86.3259581 299.8396,86.6978937 298.8766,87.071829 C303.9606,97.6360004 310.3156,107.743251 317.9526,117.156622" id="Fill-712" fill="#F98606"></path>
                                    <path d="M327.8491,77.1522459 C326.3331,77.6041677 324.8201,78.0660877 323.3081,78.5370062 C324.3081,80.4976669 325.3611,82.4373311 326.4661,84.355999 C326.9541,81.958414 327.4151,79.5578295 327.8491,77.1522459" id="Fill-714" fill="#F67D08"></path>
                                    <path d="M160.7123,285.228631 C156.0073,293.399216 151.6753,301.722776 147.7533,310.19231 C156.2263,306.271988 164.5503,301.939738 172.7223,297.236552 C170.6833,295.28289 168.6553,293.308232 166.6483,291.303579 C164.6403,289.294927 162.6653,287.269277 160.7123,285.228631" id="Fill-716" fill="#FFD000"></path>
                                    <path d="M198.8627,232.355882 C195.4097,236.23721 192.0657,240.178528 188.8337,244.182835 C193.2277,248.036168 197.5347,252.039475 201.7257,256.22975 C205.9197,260.420025 209.9237,264.728279 213.7767,269.120519 C217.7807,265.890078 221.7217,262.544657 225.6027,259.092254 C220.9197,254.925976 216.3177,250.617721 211.8277,246.128498 C207.3397,241.640275 203.0307,237.039072 198.8627,232.355882" id="Fill-718" fill="#FFCB00"></path>
                                    <path d="M188.8334,244.182935 C179.3604,255.921903 170.8394,268.176782 163.2724,280.84359 C165.6674,283.03821 168.0324,285.279822 170.3514,287.60042 C172.6694,289.919019 174.9134,292.28161 177.1064,294.676195 C189.7764,287.111505 202.0324,278.592979 213.7764,269.119619 C209.9234,264.728379 205.9174,260.420125 201.7264,256.22985 C197.5344,252.038575 193.2284,248.036268 188.8334,244.182935" id="Fill-720" fill="#FFCE00"></path>
                                    <path d="M170.351,287.60022 C168.033,285.280622 165.667,283.03901 163.273,280.84339 C162.404,282.299138 161.556,283.762884 160.712,285.228631 C162.665,287.269277 164.64,289.294927 166.648,291.303579 C168.654,293.308232 170.681,295.28289 172.722,297.238552 C174.189,296.394698 175.652,295.543845 177.107,294.675995 C174.913,292.283409 172.669,289.918819 170.351,287.60022" id="Fill-722" fill="#FFD000"></path>
                                    <path d="M237.4311,195.594645 C233.4251,198.824086 229.4841,202.169507 225.6031,205.62091 C230.2861,209.788188 234.8881,214.096443 239.3781,218.585666 C243.8671,223.072889 248.1771,227.673093 252.3431,232.356282 C255.7961,228.476954 259.1421,224.535636 262.3721,220.532329 C257.9801,216.678996 253.6711,212.675689 249.4801,208.484414 C245.2881,204.293139 241.2851,199.986885 237.4311,195.594645" id="Fill-724" fill="#FEB900"></path>
                                    <path d="M225.603,205.622209 C220.919,209.788488 216.318,214.096743 211.83,218.583966 C207.339,223.074189 203.031,227.673393 198.863,232.355582 C203.031,237.038772 207.339,241.639975 211.83,246.129198 C216.318,250.619421 220.919,254.926675 225.603,259.091954 C230.287,254.926675 234.888,250.619421 239.378,246.129198 C243.867,241.639975 248.177,237.038772 252.343,232.355582 C248.177,227.673393 243.867,223.074189 239.378,218.583966 C234.888,214.096743 230.287,209.788488 225.603,205.622209" id="Fill-726" fill="#FFC400"></path>
                                    <path d="M249.4799,208.485014 C253.6709,212.675289 257.9799,216.678596 262.3729,220.532929 C271.8469,208.789961 280.3669,196.537082 287.9329,183.870274 C285.5409,181.676654 283.1749,179.432043 280.8569,177.114444 C278.5369,174.794845 276.2939,172.431254 274.0989,170.037669 C261.4309,177.602359 249.1729,186.121885 237.4309,195.595245 C241.2849,199.986485 245.2889,204.293739 249.4799,208.485014" id="Fill-728" fill="#FEAC00"></path>
                                    <path d="M284.56,173.411485 C286.566,175.418137 288.54,177.445786 290.494,179.484434 C295.199,171.315847 299.531,162.991288 303.453,154.521754 C294.982,158.441076 286.656,162.774326 278.484,167.476512 C280.525,169.430174 282.552,171.403832 284.56,173.411485" id="Fill-730" fill="#FE9B00"></path>
                                    <path d="M278.4838,167.477012 C277.0188,168.320866 275.5538,169.167719 274.0988,170.037569 C276.2928,172.431154 278.5368,174.795745 280.8568,177.114344 C283.1748,179.431943 285.5388,181.676554 287.9328,183.871174 C288.8018,182.414426 289.6498,180.95168 290.4938,179.484933 C288.5408,177.446286 286.5658,175.418637 284.5598,173.411985 C282.5518,171.404332 280.5248,169.429674 278.4838,167.477012" id="Fill-732" fill="#FE9E00"></path>
                                    <path d="M118.3139,232.355882 C115.5719,228.235595 112.9139,224.073316 110.3469,219.873043 C100.0209,224.881176 89.3879,229.043455 78.5499,232.355882 C89.3879,235.671308 100.0209,239.832588 110.3469,244.842721 C112.9139,240.640448 115.5719,236.479168 118.3139,232.355882" id="Fill-750" fill="#FFC400"></path>
                                    <path d="M94.269,273.940484 C99.175,264.063194 104.535,254.354874 110.347,244.841521 C100.021,239.832388 89.387,235.671108 78.549,232.355682 C64.002,236.803912 49.091,239.733405 34.062,241.127164 C38.029,248.364911 42.205,255.524672 46.59,262.58645 C61.032,265.202997 75.219,269.544245 88.828,275.610195 C90.646,275.076288 92.458,274.514385 94.269,273.940484" id="Fill-752" fill="#FFCC00"></path>
                                    <path d="M46.5903,262.587949 C50.7503,269.28579 55.0943,275.901645 59.6303,282.426516 C69.4573,280.703814 79.2063,278.439206 88.8273,275.609695 C75.2193,269.543745 61.0323,265.202497 46.5903,262.587949" id="Fill-754" fill="#FFCF00"></path>
                                    <path d="M133.5522,206.820302 C134.3452,207.220233 135.1402,207.621163 135.9292,208.031092 C137.5342,205.989446 139.1572,203.959797 140.8082,201.944146 C138.4152,203.625855 135.9952,205.243575 133.5522,206.820302" id="Fill-756" fill="#FEB100"></path>
                                    <path d="M133.5522,206.820302 C126.0312,211.671462 118.2812,216.023709 110.3472,219.873043 C112.9132,224.073316 115.5722,228.235595 118.3162,232.355882 C123.8292,224.073316 129.7022,215.95872 135.9292,208.031092 C135.1402,207.621163 134.3452,207.220233 133.5522,206.820302" id="Fill-758" fill="#FEBE00"></path>
                                    <path d="M200.062,140.322512 C198.486,142.764089 196.867,145.183671 195.185,147.576256 C197.201,145.925542 199.232,144.302823 201.273,142.699101 C200.863,141.909237 200.462,141.115375 200.062,140.322512" id="Fill-760" fill="#FE9406"></path>
                                    <path d="M225.603,125.086849 C229.726,122.344324 233.888,119.686784 238.091,117.120228 C233.08,106.796015 228.919,96.1648551 225.603,85.3287307 C222.289,96.1648551 218.126,106.796015 213.117,117.120228 C217.318,119.686784 221.482,122.344324 225.603,125.086849" id="Fill-762" fill="#F98506"></path>
                                    <path d="M201.2729,142.699101 C209.2029,136.472178 217.3179,130.600195 225.6029,125.088149 C221.4819,122.344624 217.3179,119.687084 213.1169,117.120528 C209.2649,125.053155 204.9139,132.801814 200.0619,140.322512 C200.4619,141.115375 200.8629,141.909237 201.2729,142.699101" id="Fill-764" fill="#FD9107"></path>
                                    <path d="M255.8393,53.3746615 C254.0273,43.3723928 253.0403,33.2501448 252.8863,23.1168988 C246.8943,25.7424443 240.9463,28.5019667 235.0503,31.3954658 C234.8923,34.5499198 234.6653,37.7023742 234.3723,40.8488296 C241.6143,44.8161429 248.7733,48.9894205 255.8393,53.3746615" id="Fill-766" fill="#E77014"></path>
                                    <path d="M267.1948,101.04461 C267.7688,99.2359235 268.3298,97.4232373 268.8648,95.6045521 C262.7968,81.998907 258.4548,67.8143622 255.8378,53.3748615 C248.7748,48.9896205 241.6148,44.8163429 234.3748,40.8490295 C232.9818,55.8754287 230.0518,70.7838482 225.6028,85.3283307 C228.9178,96.1644551 233.0798,106.795615 238.0898,117.120828 C247.6048,111.308834 257.3158,105.950761 267.1948,101.04461" id="Fill-768" fill="#F47B0B"></path>
                                    <path d="M275.6811,66.4129048 C278.8061,48.5659938 280.1071,30.464127 279.5761,12.404253 C270.5911,15.6846852 261.6911,19.2580667 252.8841,23.1173987 C253.0401,33.2506447 254.0271,43.3718929 255.8391,53.3751614 C262.5381,57.5334417 269.1561,61.8776898 275.6811,66.4129048" id="Fill-770" fill="#E97113"></path>
                                    <path d="M275.6811,66.4129048 C269.1561,61.8776898 262.5381,57.5334417 255.8391,53.3751614 C258.4541,67.8136623 262.7961,81.999207 268.8651,95.6038522 C271.6951,85.985517 273.9601,76.2382041 275.6811,66.4129048" id="Fill-772" fill="#F47B09"></path>
                                    <path d="M135.9311,256.682771 C129.7021,248.756143 123.8291,240.640548 118.3161,232.355982 C115.5721,236.479268 112.9131,240.640548 110.3451,244.842821 C118.2811,248.691155 126.0311,253.043401 133.5521,257.895562 C134.3451,257.494631 135.1401,257.0927 135.9311,256.682771" id="Fill-774" fill="#FFC900"></path>
                                    <path d="M110.3471,244.843021 C104.5351,254.352375 99.1751,264.062694 94.2681,273.940984 C107.6811,269.682721 120.8201,264.328648 133.5521,257.895761 C126.0291,253.043601 118.2811,248.691355 110.3471,244.843021" id="Fill-776" fill="#FFCD00"></path>
                                    <path d="M163.2729,183.870174 C156.0929,190.451035 148.5889,196.478992 140.8079,201.944046 C139.1579,203.960697 137.5329,205.989346 135.9309,208.030992 C149.2589,214.936797 162.1209,223.048393 174.3649,232.355782 C179.2929,228.609431 184.1189,224.669113 188.8339,220.531829 C179.3609,208.789861 170.8389,196.536982 163.2729,183.870174" id="Fill-778" fill="#FEB300"></path>
                                    <path d="M174.3647,232.355882 C162.1207,223.047493 149.2597,214.935897 135.9307,208.031092 C129.7027,215.95872 123.8297,224.073316 118.3137,232.355882 C123.8297,240.640448 129.7027,248.756043 135.9307,256.682671 C149.2597,249.777867 162.1207,241.666271 174.3647,232.355882" id="Fill-780" fill="#FFC400"></path>
                                    <path d="M213.7768,195.594645 C217.9138,190.879461 221.8568,186.055296 225.6028,181.128149 C216.2928,168.886268 208.1788,156.025494 201.2728,142.6998 C199.2318,144.302523 197.2008,145.926242 195.1848,147.575956 C189.7198,155.35561 183.6908,162.858311 177.1088,170.037069 C189.7768,177.601759 202.0328,186.121285 213.7768,195.594645" id="Fill-782" fill="#FE9C00"></path>
                                    <path d="M213.7768,195.594645 C202.0328,186.121285 189.7768,177.601759 177.1088,170.037069 C174.9138,172.431654 172.6698,174.796245 170.3508,177.113844 C168.0328,179.431443 165.6678,181.676054 163.2728,183.867675 C170.8388,196.536482 179.3608,208.789361 188.8338,220.532329 C193.2278,216.678996 197.5348,212.675689 201.7258,208.484414 C205.9178,204.293139 209.9218,199.986885 213.7768,195.594645" id="Fill-784" fill="#FEAC00"></path>
                                    <path d="M251.1459,140.322512 C246.2939,132.801814 241.9409,125.053155 238.0909,117.120528 C233.8879,119.686084 229.7259,122.344624 225.6029,125.088149 C233.8879,130.600195 242.0049,136.472178 249.9329,142.699101 C250.3429,141.909237 250.7459,141.115375 251.1459,140.322512" id="Fill-786" fill="#FD9107"></path>
                                    <path d="M225.603,181.127949 C234.916,168.886068 243.027,156.026294 249.933,142.6996 C242.005,136.472678 233.888,130.600695 225.603,125.086649 C217.318,130.600695 209.201,136.472678 201.273,142.6996 C208.179,156.026294 216.292,168.886068 225.603,181.127949" id="Fill-788" fill="#FE9800"></path>
                                    <path d="M267.1948,101.04461 C257.3158,105.950761 247.6048,111.308834 238.0898,117.120828 C241.9408,125.052455 246.2948,132.801114 251.1458,140.322812 C257.5818,127.591016 262.9348,114.455289 267.1948,101.04461" id="Fill-790" fill="#FC8D06"></path>
                                    <path d="M216.8334,40.8490295 C216.5404,37.7015743 216.3154,34.5501198 216.1574,31.3956658 C210.2594,28.5021666 204.3134,25.7426443 198.3214,23.1170987 C198.1654,33.2503448 197.1814,43.3715929 195.3684,53.3748615 C202.4334,48.9896205 209.5914,44.815343 216.8334,40.8490295" id="Fill-805" fill="#E77014"></path>
                                    <path d="M225.603,36.1686397 C222.47,34.5399216 219.32,32.9471973 216.158,31.3954658 C216.316,34.5499198 216.54,37.7023742 216.833,40.8488296 C219.744,39.2551054 222.665,37.6953754 225.603,36.1686397" id="Fill-810" fill="#E66F14"></path>
                                    <path d="M88.8276,189.102669 C90.6456,189.637576 92.4586,190.199479 94.2676,190.774379 C93.7066,189.641575 93.1516,188.506772 92.6016,187.369969 C91.3486,187.962866 90.0896,188.540766 88.8276,189.102669" id="Fill-814" fill="#FEA600"></path>
                                    <path d="M94.269,190.774279 C92.459,190.199379 90.646,189.637476 88.828,189.102569 C75.219,195.170518 61.031,199.510767 46.59,202.127314 C42.205,209.191092 38.029,216.347853 34.062,223.5886 C49.091,224.981359 64.002,227.908852 78.549,232.356082 C89.387,229.042656 100.021,224.882376 110.345,219.873243 C104.535,210.359889 99.175,200.65157 94.269,190.774279" id="Fill-816" fill="#FEB500"></path>
                                    <path d="M144.2045,150.972069 C143.7515,151.42499 143.2885,151.862914 142.8315,152.310837 C144.4755,153.037711 146.1205,153.764585 147.7535,154.521454 C146.9975,152.887737 146.2705,151.243022 145.5425,149.599306 C145.0955,150.056227 144.6575,150.519147 144.2045,150.972069" id="Fill-820" fill="#FE9602"></path>
                                    <path d="M140.808,201.944146 C147.099,194.262476 153.736,186.770772 160.712,179.485033 C156.007,171.316447 151.675,162.991888 147.753,154.522354 C146.12,153.764485 144.476,153.037611 142.831,152.311737 C127.728,167.106176 110.718,178.794153 92.601,187.370669 C93.152,188.505472 93.706,189.641275 94.269,190.774079 C107.681,195.032342 120.82,200.385416 133.552,206.820302 C135.996,205.244575 138.415,203.623855 140.808,201.944146" id="Fill-822" fill="#FE9F00"></path>
                                    <path d="M94.269,190.774279 C99.175,200.65157 104.535,210.359889 110.345,219.873243 C118.281,216.021909 126.031,211.670662 133.552,206.818502 C120.82,200.383616 107.681,195.032542 94.269,190.774279" id="Fill-824" fill="#FEB200"></path>
                                    <path d="M182.3412,95.6041521 C181.7792,96.8669336 181.2022,98.1257157 180.6072,99.3784988 C181.7452,99.9284037 182.8802,100.482308 184.0132,101.044211 C183.4372,99.2355236 182.8762,97.4228373 182.3412,95.6041521" id="Fill-826" fill="#F98406"></path>
                                    <path d="M147.7534,154.521254 C156.2264,158.442576 164.5524,162.773826 172.7224,167.477012 C180.0094,160.501219 187.5034,153.866368 195.1854,147.576456 C196.8664,145.18487 198.4854,142.764289 200.0624,140.322712 C193.6244,127.590916 188.2734,114.455189 184.0134,101.04451 C182.8804,100.482608 181.7454,99.9287036 180.6084,99.377799 C172.0304,117.492664 160.3414,134.49872 145.5424,149.599106 C146.2714,151.243822 146.9974,152.887537 147.7534,154.521254" id="Fill-828" fill="#FD8F06"></path>
                                    <path d="M172.7221,167.477012 C164.5521,162.773826 156.2261,158.442576 147.7531,154.521254 C151.6771,162.991788 156.0091,171.315347 160.7121,179.484933 C162.6651,177.446286 164.6401,175.418637 166.6481,173.411985 C168.6541,171.404332 170.6831,169.429674 172.7221,167.477012" id="Fill-830" fill="#FE9B00"></path>
                                    <path d="M184.0131,101.04461 C193.8921,105.950761 203.6031,111.309834 213.1171,117.119828 C218.1281,106.795615 222.2881,96.1644551 225.6031,85.3283307 C221.1541,70.7838482 218.2261,55.8754287 216.8331,40.8490295 C209.5911,44.815343 202.4331,48.9896205 195.3681,53.3748615 C192.7511,67.8133624 188.4111,81.998907 182.3411,95.6045521 C182.8761,97.4232373 183.4371,99.2349237 184.0131,101.04461" id="Fill-832" fill="#F47B0B"></path>
                                    <path d="M213.1166,117.120428 C203.6026,111.309434 193.8916,105.950361 184.0126,101.04521 C188.2726,114.455889 193.6246,127.591616 200.0616,140.321412 C204.9136,132.800714 209.2666,125.053055 213.1166,117.120428" id="Fill-834" fill="#FC8E07"></path>
                                    <path d="M235.0483,31.3955658 C231.8863,32.9472972 228.7373,34.5400216 225.6033,36.1687396 C228.5403,37.6944756 231.4623,39.2552054 234.3723,40.8489296 C234.6653,37.7024742 234.8923,34.5500198 235.0483,31.3955658" id="Fill-836" fill="#E66F14"></path>
                                    <path d="M225.603,85.3286307 C230.052,70.7841482 232.982,55.8757286 234.374,40.8493295 C231.464,39.2556053 228.541,37.6948755 225.603,36.1691396 C222.665,37.6948755 219.744,39.2556053 216.833,40.8493295 C218.226,55.8757286 221.154,70.7841482 225.603,85.3286307" id="Fill-838" fill="#F1770D"></path>
                                    <path d="M160.7123,179.484633 C153.7353,186.771372 147.0993,194.263076 140.8083,201.943746 C148.5893,196.479692 156.0933,190.450735 163.2733,183.867875 C162.4033,182.414126 161.5563,180.95138 160.7123,179.484633" id="Fill-840" fill="#FEA800"></path>
                                    <path d="M195.185,147.576156 C187.503,153.866068 180.009,160.501919 172.722,167.476712 C174.189,168.320566 175.652,169.168419 177.107,170.037269 C183.691,162.858511 189.72,155.35581 195.185,147.576156" id="Fill-842" fill="#FE9800"></path>
                                    <path d="M170.351,177.114044 C172.669,174.795445 174.913,172.430854 177.107,170.038269 C175.652,169.168419 174.189,168.320566 172.722,167.476712 C170.681,169.429374 168.654,171.405032 166.648,173.411685 C164.64,175.418337 162.665,177.444987 160.712,179.485633 C161.556,180.95138 162.404,182.414126 163.273,183.869874 C165.667,181.676254 168.033,179.431643 170.351,177.114044" id="Fill-844" fill="#FE9E00"></path>
                                    <path d="M154.7983,81.7071575 C161.5973,76.3930773 168.5073,71.2909604 175.5253,66.4128048 C172.4003,48.5658939 171.1013,30.4640271 171.6303,12.404153 C170.1713,11.8702454 168.7083,11.3483357 167.2433,10.8304254 C168.7103,34.8882613 164.5693,59.2250489 154.7983,81.7071575" id="Fill-859" fill="#E87113"></path>
                                    <path d="M175.5268,66.4129048 C182.0498,61.8776898 188.6698,57.5334417 195.3688,53.3751614 C197.1808,43.3718929 198.1658,33.2506447 198.3218,23.1173987 C189.5148,19.2580667 180.6148,15.6846852 171.6308,12.404253 C171.1008,30.464127 172.3998,48.5659938 175.5268,66.4129048" id="Fill-864" fill="#E97113"></path>
                                    <path d="M92.601,187.370569 C88.101,178.080177 83.998,168.648809 80.294,159.096462 C78.515,159.953314 76.729,160.781171 74.928,161.564035 C69.613,168.361859 64.51,175.270663 59.631,182.289448 C69.457,184.01015 79.206,186.274758 88.827,189.103269 C90.091,188.540366 91.349,187.963466 92.601,187.370569" id="Fill-866" fill="#FE9D00"></path>
                                    <path d="M59.6308,182.289348 C55.0948,188.812219 50.7498,195.429074 46.5908,202.127914 C61.0318,199.511367 75.2198,195.170119 88.8268,189.103169 C79.2068,186.274658 69.4578,184.01005 59.6308,182.289348" id="Fill-868" fill="#FEA800"></path>
                                    <path d="M145.5424,149.599206 C140.8394,138.970046 136.7414,128.139921 133.2534,117.155822 C129.8884,121.307103 126.2784,125.325408 122.4154,129.186739 C118.5524,133.048071 114.5344,136.658446 110.3824,140.024863 C121.3684,143.51026 132.2004,147.607551 142.8314,152.309737 C143.2884,151.863814 143.7514,151.42489 144.2044,150.971969 C144.6574,150.519047 145.0954,150.056127 145.5424,149.599206" id="Fill-870" fill="#FD9207"></path>
                                    <path d="M110.3842,140.024763 C100.9682,147.660442 90.8592,154.012342 80.2932,159.097462 C83.9982,168.648809 88.1012,178.081176 92.6012,187.370569 C110.7202,178.794053 127.7282,167.106076 142.8312,152.311637 C132.2002,147.607451 121.3682,143.51016 110.3842,140.024763" id="Fill-872" fill="#FE9B00"></path>
                                    <path d="M180.6088,99.3778989 C181.2008,98.1251158 181.7788,96.8673335 182.3408,95.6035522 C179.5128,85.985217 177.2478,76.2379042 175.5268,66.4126048 C168.5068,71.2907605 161.5968,76.3928774 154.7978,81.7069576 C154.0148,83.5086457 153.1868,85.2943366 152.3298,87.0720289 C161.8838,90.7763878 171.3178,94.8786777 180.6088,99.3778989" id="Fill-874" fill="#F77E07"></path>
                                    <path d="M145.5424,149.599206 C160.3414,134.49782 172.0304,117.493763 180.6084,99.3788988 C171.3174,94.8796775 161.8844,90.7763878 152.3294,87.0710291 C147.2454,97.6362004 140.8924,107.743451 133.2534,117.155822 C136.7414,128.139921 140.8394,138.970046 145.5424,149.599206" id="Fill-876" fill="#FC8D06"></path>
                                    <path d="M195.3686,53.3746615 C188.6676,57.5339416 182.0526,61.8771898 175.5266,66.4124049 C177.2476,76.2377042 179.5136,85.9850171 182.3416,95.6043521 C188.4096,81.9987071 192.7516,67.8141622 195.3686,53.3746615" id="Fill-878" fill="#F47B09"></path>
                                    <path d="M129.1811,103.266426 C127.5011,97.0015103 126.0331,90.6936021 124.7401,84.3556991 C119.2381,93.8920485 112.4151,102.876493 104.2571,111.034081 C96.1011,119.18867 87.1151,126.00849 77.5761,131.511537 C83.9151,132.803313 90.2241,134.272059 96.4901,135.950769 C101.6361,130.269752 106.9491,124.683719 112.4291,119.203667 C117.9111,113.722616 123.4971,108.412535 129.1811,103.266426" id="Fill-886" fill="#FA8706"></path>
                                    <path d="M77.5771,131.510537 C75.6591,132.617346 73.7181,133.669164 71.7571,134.66899 C74.0141,141.904738 76.4871,149.089494 79.1831,156.206263 C84.7271,149.329453 90.4921,142.572622 96.4901,135.950769 C90.2251,134.272059 83.9151,132.803313 77.5771,131.510537" id="Fill-888" fill="#FE9504"></path>
                                    <path d="M127.8979,78.5373062 C135.1359,80.7929158 142.3199,83.2664876 149.4409,85.9610212 C151.2179,84.5282692 153.0049,83.1095148 154.7979,81.7067576 C164.5699,59.224649 168.7109,34.8888612 167.2439,10.8300255 C158.4349,7.71456471 149.5499,4.87505619 140.6049,2.31149991 C144.2279,28.119033 139.9899,54.8134125 127.8979,78.5373062" id="Fill-893" fill="#E97212"></path>
                                    <path d="M129.1811,103.266426 C135.8041,97.2694639 142.5621,91.5044617 149.4411,85.9614212 C142.3201,83.2668876 135.1361,80.7933157 127.9001,78.5377061 C126.9001,80.4983667 125.8451,82.438031 124.7401,84.3556991 C126.0331,90.6936021 127.5011,97.0015103 129.1811,103.266426" id="Fill-895" fill="#F98206"></path>
                                    <path d="M133.2553,117.156622 C131.7923,112.551419 130.4293,107.92122 129.1813,103.266026 C123.4993,108.413135 117.9113,113.722216 112.4293,119.204267 C106.9483,124.683319 101.6383,130.269352 96.4893,135.951369 C101.1463,137.199153 105.7763,138.561917 110.3843,140.023664 C114.5323,136.658246 118.5523,133.047871 122.4153,129.186539 C126.2763,125.326208 129.8883,121.306903 133.2553,117.156622" id="Fill-899" fill="#FB8C06"></path>
                                    <path d="M96.4897,135.951169 C90.4927,142.573022 84.7257,149.329853 79.1827,156.207662 C79.5487,157.172495 79.9197,158.134329 80.2947,159.096162 C90.8597,154.012042 100.9687,147.660142 110.3847,140.023464 C105.7767,138.561717 101.1457,137.198953 96.4897,135.951169" id="Fill-901" fill="#FE9603"></path>
                                    <path d="M152.3315,87.071429 C153.1855,85.2947366 154.0155,83.5090456 154.7985,81.7063577 C153.0055,83.1091149 151.2185,84.5278693 149.4405,85.9606213 C150.4055,86.326558 151.3665,86.6984936 152.3315,87.071429" id="Fill-903" fill="#F77E07"></path>
                                    <path d="M133.2553,117.156622 C140.8923,107.743251 147.2453,97.6360004 152.3313,87.071829 C151.3663,86.6978937 150.4053,86.3259581 149.4413,85.9610212 C142.5623,91.5040618 135.8043,97.269064 129.1813,103.266026 C130.4293,107.92122 131.7923,112.551419 133.2553,117.156622" id="Fill-905" fill="#F98606"></path>
                                    <path d="M123.3569,77.1522459 C121.0799,64.5034353 119.5679,51.7456435 118.8219,38.9498583 C116.7609,50.6238377 112.7549,62.0218648 106.7999,72.6210302 C112.3449,74.0067904 117.8669,75.5155292 123.3569,77.1522459" id="Fill-915" fill="#EC7213"></path>
                                    <path d="M104.2573,111.032682 C112.4153,102.877093 119.2373,93.8926484 124.7393,84.356299 C124.2513,81.958714 123.7903,79.5581295 123.3593,77.1525459 C117.8663,75.5158292 112.3453,74.0070903 106.7983,72.6213302 C102.1123,80.9608867 96.2243,88.8075285 89.1273,95.9043002 C82.0283,103.000072 74.1813,108.887053 65.8403,113.573242 C67.2263,119.118282 68.7353,124.638327 70.3723,130.130376 C72.7783,130.561301 75.1793,131.022222 77.5773,131.510137 C87.1143,126.009089 96.1013,119.18827 104.2573,111.032682" id="Fill-917" fill="#F98606"></path>
                                    <g id="Group-926" transform="translate(118.000000, 0.000000)">
                                        <mask id="mask-17" fill="white">
                                            <use xlink:href="#path-16"></use>
                                        </mask>
                                        <g id="Clip-925"></g>
                                        <path d="M0.8217,1.57362762 C3.0037,13.929489 3.0037,26.593297 0.8217,38.9501582 C1.5657,51.7459434 3.0797,64.5037352 5.3567,77.1525459 C6.8747,77.6044676 8.3857,78.0663877 9.8977,78.5373062 C21.9917,54.8134125 26.2277,28.119033 22.6027,2.31249974 C15.4817,0.271852946 8.3197,-1.5928243 1.1267,-3.28353166 C1.0077,-1.66481184 0.9157,-0.0460920221 0.8217,1.57362762" id="Fill-924" fill="#EC7312" mask="url(#mask-17)"></path>
                                    </g>
                                    <path d="M127.8979,78.5373062 C126.3879,78.0663877 124.8749,77.6044676 123.3569,77.1525459 C123.7909,79.5581295 124.2519,81.958714 124.7399,84.356299 C125.8469,82.4376311 126.8999,80.4979668 127.8979,78.5373062" id="Fill-927" fill="#F77D07"></path>
                                    <g id="Group-940" transform="translate(88.000000, 0.000000)">
                                        <mask id="mask-19" fill="white">
                                            <use xlink:href="#path-18"></use>
                                        </mask>
                                        <g id="Clip-939"></g>
                                        <path d="M0.4575,68.5117415 C6.5975,69.7305305 12.7125,71.1002934 18.7985,72.6210302 C24.7555,62.0218648 28.7615,50.6238377 30.8215,38.9498583 C30.0975,26.5020128 30.0975,14.0211731 30.8215,1.57332768 C30.5175,-0.159372415 30.1655,-1.88507372 29.7745,-3.60477606 C29.1205,-3.75574993 28.4665,-3.89972501 27.8115,-4.04869922 C23.0205,-0.60229575 18.2745,2.93109266 13.5715,6.54946637 C16.8535,27.7347995 12.4795,49.8719678 0.4575,68.5117415" id="Fill-938" fill="#E77113" mask="url(#mask-19)"></path>
                                    </g>
                                    <path d="M76.518,83.2967824 C71.932,87.8819887 66.968,91.8583005 61.73,95.2347161 C62.949,101.373653 64.319,107.489595 65.84,113.574542 C74.182,108.887353 82.03,103.000372 89.126,95.9036003 C96.224,88.8078285 102.113,80.9611866 106.8,72.6206303 C100.714,71.0998935 94.597,69.7301306 88.458,68.5113416 C85.08,73.7484351 81.104,78.711576 76.518,83.2967824" id="Fill-941" fill="#F98206"></path>
                                    <path d="M118.8217,38.9494583 C121.0037,26.593597 121.0037,13.9297889 118.8217,1.57292775 C118.0967,14.021773 118.0967,26.5016129 118.8217,38.9494583" id="Fill-943" fill="#E06D14"></path>
                                    <path d="M72.268,65.654736 C77.68,66.4895915 83.078,67.4444262 88.456,68.5112416 C100.48,49.8724677 104.851,27.7352994 101.572,6.54896646 C96.906,10.139345 92.285,13.8157087 87.708,17.575058 C88.317,34.4981288 83.167,51.5781725 72.268,65.654736" id="Fill-954" fill="#E67013"></path>
                                    <path d="M88.4575,68.5117415 C83.0775,67.4439263 77.6805,66.4900914 72.2685,65.6552359 C70.3525,68.1288078 68.2805,70.5203938 66.0105,72.7910008 C63.7395,75.0616078 61.3475,77.1332492 58.8725,79.0479178 C59.7085,84.459981 60.6625,89.8560471 61.7305,95.2341162 C66.9675,91.8577006 71.9315,87.8823887 76.5175,83.2971823 C81.1035,78.7119759 85.0795,73.748835 88.4575,68.5117415" id="Fill-956" fill="#F77E07"></path>
                                    <path d="M57.5917,63.6804777 C62.4937,64.2453799 67.3867,64.9012664 72.2677,65.6551359 C83.1677,51.5785724 88.3167,34.4985287 87.7087,17.5754579 C83.3747,21.1368415 79.0817,24.7752117 74.8307,28.488569 C73.1167,41.3383449 67.3727,53.7481969 57.5917,63.6804777" id="Fill-966" fill="#E77013"></path>
                                </g>
                            </g>
                        </g>
                    </g>
                    <g id="Page-1" transform="translate(42.000000, 42.000000)" fill="#FFFFFF">
                        <path d="M15.7253167,79.6566308 L15.2550463,83.4123616 L10.346487,85.2645934 C10.1984722,85.3258641 9.87100741,85.3815971 9.36409259,85.431614 L9.35924259,85.470913 C9.56402037,85.5427229 9.87909074,85.6913445 10.304813,85.916599 L14.5661667,88.9140384 L14.0933815,92.6895974 L7.58396296,87.3324336 L0,90.5560207 L0.482664815,86.7020424 L4.97466296,85.2167201 C5.33050926,85.0948933 5.74581296,85.0036125 6.2207537,84.9428778 L6.2256037,84.9035788 C5.94645926,84.7892545 5.55378889,84.5913306 5.04831111,84.3096285 L1.12717593,81.5535205 L1.56924444,78.0232228 L8.0527963,83.1081519 L15.7253167,79.6566308 Z" id="Fill-1"></path>
                        <path d="M13.9588389,66.2828171 L8.93154444,66.1792107 C8.53582037,66.1695646 8.10560741,66.1068649 7.64144444,65.9903971 L7.61557778,66.0652437 C7.99765,66.2370874 8.36265741,66.4485873 8.71042037,66.6992075 L12.7772352,69.7139742 L13.9588389,66.2828171 Z M20.9897222,63.1619432 L19.8562593,66.4528744 L16.5288,66.3849944 L14.8866259,71.1532096 L17.560413,73.1188724 L16.4334167,76.3910474 L4.63264815,66.9191031 L5.86580556,63.3384313 L20.9897222,63.1619432 Z" id="Fill-3"></path>
                        <path d="M31.7791759,45.1625875 L30.0644315,47.8140174 L22.8928981,43.2276493 C22.1463574,42.7501668 21.3125167,42.1699711 20.3913759,41.4868836 L20.3484444,41.5535133 C20.9943926,42.1624686 21.443287,42.6256605 21.6945889,42.943089 L28.0380296,50.9477527 L26.6187759,53.1418855 L16.7148963,50.8262832 C16.4564093,50.7630476 15.8185444,50.5313623 14.8011222,50.1312274 L14.7529815,50.206074 C15.8471056,50.8041329 16.9069204,51.4309514 17.9320667,52.0865296 L24.5602204,56.3252805 L22.9960056,58.7441319 L11.0102185,51.0788684 L13.5526963,47.147364 L22.2322204,49.2555749 C22.8244593,49.3993734 23.487113,49.6233775 24.2198222,49.9274086 L24.2521556,49.877749 C23.7006926,49.3293498 23.2262907,48.802565 22.8282315,48.2973947 L17.3152185,41.3289732 L19.7932093,37.4973239 L31.7791759,45.1625875 Z" id="Fill-5"></path>
                        <path d="M37.4557596,31.4606274 L33.0472893,29.055352 C32.7007837,28.864752 32.3487096,28.6110951 31.9914263,28.2943811 L31.9339448,28.3488638 C32.1924319,28.6770101 32.4175078,29.0323085 32.6093522,29.4147589 L34.8116115,33.9584341 L37.4557596,31.4606274 Z M45.1406744,31.9293569 L42.6044837,34.3251649 L39.6864004,32.733914 L36.0118967,36.2050846 L37.4674356,39.1780515 L34.9457948,41.5602834 L28.891917,27.7331204 L31.6513874,25.1261698 L45.1406744,31.9293569 Z" id="Fill-7"></path>
                        <path d="M49.7856452,17.0181498 C49.1264044,15.9672597 48.1644878,15.8340005 46.8997156,16.6185508 L45.6687137,17.3820225 L47.767147,20.7277937 L48.9474933,19.9954038 C49.5095544,19.6468935 49.8715081,19.1935263 50.0326359,18.6353023 C50.1939433,18.077257 50.111673,17.537968 49.7856452,17.0181498 L49.7856452,17.0181498 Z M58.5059452,23.3029478 L55.3778748,25.243245 L52.2144174,22.9074573 C51.1842415,22.1488086 50.3263304,21.9821453 49.6405044,22.4074673 L49.0502415,22.7736622 L51.9374285,27.3770003 L49.2140637,29.0661414 L41.6724933,17.0422651 L45.9895322,14.3645764 C48.9237822,12.5443197 51.0746674,12.724559 52.4420081,14.9045799 C52.9645507,15.7375394 53.1687896,16.5892552 53.0549044,17.4595487 C52.9408396,18.3300208 52.5185304,19.1472607 51.7876174,19.9110897 L51.8086341,19.9446724 C52.6570248,19.729064 53.6207378,19.9893304 54.6992341,20.7256501 L58.5059452,23.3029478 Z" id="Fill-9"></path>
                        <polygon id="Fill-11" points="66.3555983 19.9303283 63.3990743 21.1734261 57.8495965 8.12098867 60.8061206 6.87789089"></polygon>
                        <path d="M84.9241107,14.7208751 L81.7649644,15.4345086 L74.0545422,8.04540961 C73.6027737,7.6138355 73.2826737,7.28408144 73.0947811,7.05614743 L73.0561607,7.06507901 C73.2251922,7.56739127 73.4213478,8.30674775 73.6442681,9.28332708 L75.3787719,16.8769593 L72.4231459,17.5446845 L69.2666941,3.72538132 L72.6390607,2.96369589 L80.0746496,10.131113 L81.02992,11.1009043 L81.06872,11.09233 C80.9406441,10.7700785 80.7703552,10.1429027 80.5574941,9.21133852 L78.812033,1.56929708 L81.7676589,0.901750529 L84.9241107,14.7208751 Z" id="Fill-13"></path>
                        <path d="M109.854045,14.3672737 C108.780937,14.7775906 107.406232,14.910314 105.729749,14.7659796 C104.323967,14.6450459 103.115958,14.255093 102.10608,13.5961208 C101.096202,12.9371486 100.35038,12.0511355 99.8686133,10.9386174 C99.3870263,9.82574214 99.207217,8.5671034 99.3295448,7.16234396 C99.4570819,5.69881469 99.8916059,4.41213078 100.633297,3.30211358 C101.374808,2.19209639 102.352532,1.3686044 103.566469,0.831816231 C104.780226,0.294849433 106.109845,0.0883512236 107.555324,0.213036129 C108.921587,0.330575767 110.07481,0.605132643 111.014632,1.03652812 L110.748241,4.09845357 C109.833567,3.4510924 108.775728,3.07560863 107.574545,2.97218089 C106.234508,2.8566062 105.120086,3.18743205 104.231278,3.96394392 C103.342471,4.74027715 102.837173,5.82760812 102.715563,7.2257582 C102.59611,8.59764942 102.890523,9.72070672 103.599341,10.5951087 C104.307621,11.4693321 105.308697,11.9623555 106.602389,12.0736431 C107.84345,12.1806434 109.011582,11.9770033 110.106963,11.4627228 L109.854045,14.3672737 Z" id="Fill-15"></path>
                        <polygon id="Fill-18" points="123.677623 18.276074 115.436574 16.0249577 119.211132 2.35981367 127.136032 4.5248295 126.44356 7.03085318 121.614037 5.71165831 120.774449 8.75161205 125.268602 9.97916889 124.579004 12.4757251 120.084671 11.2481683 119.221371 14.3736866 124.367221 15.7793392"></polygon>
                        <path d="M139.420651,14.2771004 C139.96439,13.1629747 139.565971,12.282142 138.224856,11.6347808 L136.919488,11.0049255 L135.188217,14.5520146 L136.439877,15.1561469 C137.035888,15.4437439 137.614295,15.5071581 138.175458,15.3456751 C138.736262,15.1845493 139.151566,14.8283578 139.420651,14.2771004 L139.420651,14.2771004 Z M138.711473,24.9635614 L135.394791,23.3626644 L135.699623,19.4565257 C135.796982,18.1853827 135.482271,17.3743949 134.75513,17.0233837 L134.12948,16.7213176 L131.747053,21.6022493 L128.859506,20.2083864 L135.082056,7.45944415 L139.659379,9.66893927 C142.770384,11.1705171 143.76194,13.0770529 142.633866,15.3887253 C142.202575,16.2718803 141.586445,16.8970911 140.784938,17.2645365 C139.983251,17.6318032 139.062649,17.7112943 138.023312,17.5022952 L138.005888,17.5378429 C138.641058,18.1373308 138.932238,19.087294 138.879427,20.3871967 L138.711473,24.9635614 Z" id="Fill-20"></path>
                        <polygon id="Fill-22" points="158.078637 24.4892765 154.820874 22.0725686 147.86292 31.3481967 145.282181 29.4338011 152.239955 20.158173 148.998 17.7530762 150.560777 15.6698737 159.641414 22.4060739"></polygon>
                        <polygon id="Fill-24" points="157.154873 39.7108204 154.898905 37.4400546 165.036303 27.4802673 167.292271 29.7510331"></polygon>
                        <polygon id="Fill-26" points="175.822847 44.3229829 172.83363 40.3018054 170.02081 42.3696456 172.767706 46.064999 170.673943 47.6039108 167.927226 43.9087361 163.476184 47.1807324 161.568158 44.6139739 173.027271 36.1902403 177.924513 42.7781763"></polygon>
                        <polygon id="Fill-28" points="170.867943 58.9332672 169.348456 56.1216047 181.900974 49.4130923 183.420461 52.2245762"></polygon>
                        <polygon id="Fill-30" points="176.618552 72.8585168 173.708732 64.8676077 187.107845 60.0425877 189.905935 67.7267862 187.448422 68.6119061 185.743198 63.9287196 182.762424 65.0021173 184.349272 69.3598369 181.90128 70.2415628 180.314432 65.883486 177.249771 66.9872511 179.066545 71.9767909"></polygon>
                        <path d="M186.661842,86.1468552 C188.010861,85.9417861 189.008344,85.3885638 189.653753,84.487367 C190.299342,83.5859916 190.516874,82.4515019 190.306707,81.0838978 L190.069416,79.5405202 L181.140027,80.8981209 L181.380372,82.461148 C181.586407,83.8026718 182.158168,84.8072963 183.095296,85.4744856 C184.032064,86.1418535 185.221033,86.3660363 186.661842,86.1468552 M187.211868,89.4624376 C185.783992,89.6792965 184.474313,89.5635431 183.282829,89.1148204 C182.091346,88.6662763 181.110209,87.91906 180.339598,86.8731716 C179.568807,85.8272832 179.070335,84.5684658 178.844181,83.0967195 L178.080935,78.1343317 L192.16767,75.9923593 L192.930737,80.9549257 C193.695779,85.9303536 191.78937,88.76631 187.211868,89.4624376" id="Fill-32"></path>
                        <path d="M176.877129,120.101699 L177.478349,117.006369 L185.849809,118.614233 C186.721551,118.781611 187.712388,119.012046 188.822859,119.305895 L188.837947,119.22819 C188.010573,118.901651 187.420849,118.637455 187.068775,118.435601 L178.188605,113.34835 L178.685999,110.786772 L188.746157,109.27662 C189.009673,109.239822 189.688494,109.219279 190.782438,109.214813 L190.799503,109.127284 C189.560059,108.976697 188.34199,108.786276 187.145297,108.556555 L179.407751,107.070519 L179.95616,104.246888 L193.948051,106.934044 L193.056729,111.523627 L184.210868,112.77387 C183.607312,112.859078 182.908373,112.896055 182.11459,112.884622 L182.103273,112.942677 C182.819816,113.247959 183.457321,113.561636 184.01561,113.88353 L191.737709,118.315739 L190.86902,122.788855 L176.877129,120.101699 Z" id="Fill-34"></path>
                        <path d="M176.934664,137.685932 C178.247757,138.299889 179.414451,138.502994 180.434748,138.29596 C181.455224,138.088568 182.200686,137.487115 182.671496,136.491422 C183.144999,135.489835 183.143203,134.509861 182.666646,133.551681 C182.190088,132.593501 181.319064,131.818775 180.054112,131.227326 C178.794909,130.638734 177.64959,130.463497 176.618157,130.70197 C175.586724,130.940443 174.840003,131.548505 174.377636,132.526335 C173.907007,133.52185 173.897666,134.482173 174.349794,135.407128 C174.802101,136.332083 175.663605,137.091625 176.934664,137.685932 M175.658935,140.802162 C174.339914,140.185525 173.290877,139.369179 172.512003,138.353479 C171.733129,137.337779 171.290881,136.213829 171.185438,134.981449 C171.079816,133.749069 171.316209,132.521691 171.893898,131.299672 C172.457755,130.106948 173.239503,129.162165 174.238962,128.464787 C175.238601,127.767409 176.356975,127.387459 177.594264,127.325474 C178.831733,127.263132 180.079799,127.526435 181.338824,128.115205 C182.675627,128.740237 183.737418,129.560514 184.523836,130.576213 C185.310075,131.591734 185.757712,132.723723 185.866568,133.972359 C185.975424,135.220637 185.731127,136.476775 185.133499,137.740951 C184.57539,138.921349 183.801546,139.853628 182.811966,140.537608 C181.822386,141.221589 180.70509,141.587248 179.460077,141.634764 C178.214885,141.68228 176.947777,141.404865 175.658935,140.802162" id="Fill-36"></path>
                        <path d="M170.197673,153.888736 C171.031334,154.518055 171.92104,154.213667 172.866251,152.975392 L173.593391,152.022928 L170.90218,149.99135 L170.04894,151.10887 C169.648366,151.63369 169.460832,152.143326 169.486519,152.638493 C169.512206,153.133302 169.749138,153.55005 170.197673,153.888736 M165.058649,150.716416 C165.517603,151.062961 166.000267,151.168711 166.506643,151.034202 C167.013019,150.899335 167.490475,150.537963 167.93901,149.950443 L169.002597,148.557116 L166.010506,146.298498 L164.959134,147.676105 C164.518503,148.253085 164.304743,148.813631 164.318395,149.357208 C164.331688,149.900784 164.578319,150.353972 165.058649,150.716416 M162.983927,153.368739 C161.949619,152.58794 161.407856,151.597785 161.358638,150.398452 C161.309419,149.19894 161.775379,147.956557 162.756875,146.671123 L166.067629,142.333946 L177.417886,150.90255 L174.281373,155.011436 C173.323947,156.265609 172.35251,157.055875 171.366703,157.383128 C170.381075,157.710203 169.468556,157.556937 168.629686,156.923509 C168.038525,156.477287 167.661482,155.87637 167.498379,155.120401 C167.334916,154.364253 167.416108,153.58792 167.741417,152.791401 L167.709803,152.767643 C167.018049,153.477704 166.23666,153.890879 165.366354,154.00699 C164.49569,154.123101 163.701547,153.91035 162.983927,153.368739" id="Fill-38"></path>
                        <polygon id="Fill-40" points="153.253551 157.020024 155.570235 154.810707 165.434057 165.038621 163.117194 167.247937"></polygon>
                        <polygon id="Fill-42" points="141.356232 166.258461 148.250237 161.336444 156.560982 172.848362 153.953478 174.709882 147.161143 165.301352 142.874641 168.36167"></polygon>
                        <polygon id="Fill-44" points="129.153183 172.572662 136.831092 168.839974 143.090107 181.570875 135.70697 185.160657 134.559136 182.825584 139.058679 180.637882 137.66637 177.806034 133.479203 179.841542 132.335681 177.515579 136.522488 175.479892 135.09102 172.568017 130.296885 174.898625"></polygon>
                        <path d="M108.050384,185.452469 C108.26558,186.792564 108.828539,187.780576 109.738902,188.416862 C110.649624,189.052612 111.79171,189.261611 113.165697,189.043681 L114.7159,188.797526 L113.291976,179.926677 L111.721834,180.176047 C110.374252,180.389869 109.367967,180.965063 108.703158,181.901272 C108.038349,182.837302 107.820637,184.020915 108.050384,185.452469 M104.72023,186.021233 C104.49246,184.602719 104.600237,183.299601 105.043743,182.111879 C105.486889,180.923978 106.231813,179.94329 107.278336,179.170172 C108.325037,178.396876 109.587654,177.892956 111.066006,177.658234 L116.051267,176.866896 L118.297715,190.860722 L113.312634,191.652239 C108.314439,192.445721 105.450245,190.568838 104.72023,186.021233" id="Fill-46"></path>
                        <polygon id="Fill-48" points="89.4369639 178.607929 97.9781731 178.900528 97.4876046 193.06334 89.2742194 192.782173 89.3642139 190.184512 94.3695935 190.355998 94.4786287 187.205471 89.8208324 187.045775 89.9104676 184.458116 94.5682639 184.617813 94.6805324 181.378328 89.3473287 181.195587"></polygon>
                        <path d="M69.2523057,189.199358 L77.1578057,176.43809 L80.7071076,177.228535 L82.3241335,192.111411 L78.9494317,191.359729 L78.2179798,181.089659 C78.1768446,180.520002 78.186365,180.039662 78.2474391,179.647923 L78.1892391,179.635061 C78.0304465,180.099325 77.8238724,180.549477 77.5693372,180.985695 L72.5300076,189.929604 L69.2523057,189.199358 Z" id="Fill-51"></path>
                        <polygon id="Fill-53" points="59.8940331 170.216957 67.7388183 173.588987 62.0846165 186.596945 54.5408906 183.354423 55.578072 180.968618 60.1753331 182.94482 61.4330998 180.051166 57.1550406 178.212153 58.1880906 175.835458 62.4661498 177.674471 63.7594831 174.699182 58.8609831 172.593651"></polygon>
                        <polygon id="Fill-55" points="47.9049769 162.906313 55.0210046 167.505006 47.2561546 179.387763 44.5645843 177.648248 50.9107194 167.936759 46.486262 165.077402"></polygon>
                        <path d="M32.3180648,158.506472 C31.3141148,159.548073 30.7484611,160.582886 30.6203852,161.610733 C30.4924889,162.638579 30.8278574,163.533167 31.6264907,164.294316 C32.4301537,165.06011 33.3647667,165.371108 34.4299704,165.227488 C35.4951741,165.08369 36.5115185,164.509925 37.4786444,163.506372 C38.4411,162.507464 38.9733426,161.483904 39.075013,160.435694 C39.176863,159.387483 38.835387,158.48968 38.0509444,157.742107 C37.2523111,156.980779 36.3399722,156.665851 35.314287,156.796967 C34.2886019,156.928261 33.2898611,157.497917 32.3180648,158.506472 M29.75475,156.310017 C30.7633704,155.263592 31.8758167,154.535311 33.0922685,154.125173 C34.3089,153.715034 35.5212204,153.656622 36.7292296,153.950292 C37.9374185,154.243963 39.0319019,154.85792 40.0123204,155.792521 C40.9690278,156.704078 41.6203648,157.742285 41.9661519,158.906785 C42.3121185,160.071464 42.3173278,161.246681 41.9819593,162.432617 C41.6465907,163.618553 40.9974093,164.710885 40.0347741,165.709794 C39.0128611,166.770687 37.8923315,167.509508 36.6735444,167.926791 C35.454937,168.343896 34.2330963,168.40481 33.0085611,168.109353 C31.7840259,167.813717 30.6647537,167.182612 29.6505648,166.216214 C28.7035574,165.313589 28.0619204,164.286992 27.7256537,163.136247 C27.3895667,161.985502 27.3971111,160.815822 27.7488259,159.627028 C28.1007204,158.438413 28.7693019,157.332683 29.75475,156.310017" id="Fill-57"></path>
                        <path d="M19.4631578,146.388474 C18.2555078,147.211788 18.1351559,148.324484 19.101743,149.726386 L19.8155911,150.761378 L23.4789578,148.263035 L22.7652893,147.228043 C21.7987022,145.82632 20.6979319,145.546405 19.4631578,146.388474 M17.4538207,143.684348 C18.2298207,143.155241 19.051267,142.878898 19.9181596,142.854783 C20.7854115,142.830667 21.6296707,143.061817 22.4509374,143.548231 C23.2723837,144.034466 23.9957522,144.731487 24.6215819,145.638757 L25.4870374,146.893823 L29.53553,144.132892 L31.3510467,146.765387 L19.5984189,154.780054 L16.7547022,150.655985 C14.7238096,147.711063 14.9569689,145.387244 17.4538207,143.684348" id="Fill-59"></path>
                        <polygon id="Fill-61" points="19.5136696 125.744834 23.0047715 133.502271 9.99743074 139.291009 6.64033259 131.831172 9.02581407 130.769564 11.0717956 135.31574 13.9652696 134.027984 12.0615548 129.797451 14.4380548 128.739951 16.3419493 132.970306 19.3169752 131.646288 17.1371696 126.802512"></polygon>
                        <path d="M6.40122759,116.200758 C5.19052389,116.491571 4.7601313,117.357398 5.11004981,118.798241 L5.45044796,120.200857 L9.30476093,119.275367 L8.97837389,117.930627 C8.822635,117.290233 8.50415167,116.805784 8.02220537,116.477459 C7.54061833,116.149312 7.00011278,116.05696 6.40122759,116.200758 L6.40122759,116.200758 Z M15.1481128,109.95258 L16.0135683,113.516817 L12.7872406,115.765433 C11.7383831,116.498537 11.3088887,117.255578 11.4985776,118.036913 L11.6618609,118.709461 L16.9652461,117.435996 L17.7184331,120.538828 L3.86629426,123.86495 L2.67193685,118.946506 C1.86037019,115.603593 2.71019796,113.630427 5.22195907,113.027367 C6.18136093,112.796932 7.05849241,112.87285 7.85317389,113.254765 C8.648035,113.636679 9.29452204,114.292972 9.79317389,115.223643 L9.83197389,115.214533 C9.89340722,114.345668 10.445948,113.518246 11.4885183,112.732624 L15.1481128,109.95258 Z" id="Fill-63"></path>
                    </g>
                    <path d="M169.590564,173.479059 L158.588073,173.479059 C158.075659,173.475849 157.566447,173.18698 157.331057,172.727999 L138.67278,139.413357 C138.591114,139.254479 138.52386,139.081157 138.504644,138.882159 C138.477422,139.081157 138.414972,139.254479 138.323698,139.413357 L119.628591,172.727999 C119.393201,173.174141 118.917616,173.46622 118.435627,173.479059 L107.405914,173.479059 C106.3987,173.501526 105.657301,172.209639 106.16331,171.339822 L124.397244,138.745748 L106.16331,106.111554 C105.722954,105.328397 106.246577,104.17934 107.144903,104.006018 C107.226569,103.997994 107.324248,103.997994 107.405914,104.006018 L118.435627,104.006018 C118.917616,104.015647 119.386796,104.309331 119.628591,104.716957 L138.323698,138.02197 C138.414972,138.196897 138.477422,138.389476 138.504644,138.569217 C138.52386,138.389476 138.591114,138.196897 138.67278,138.02197 L157.331057,104.716957 C157.571251,104.290073 158.075659,104.006018 158.588073,104.006018 L169.590564,104.006018 C170.567353,104.015647 171.302347,105.25297 170.834769,106.111554 L152.608841,138.745748 L170.834769,171.339822 C171.345582,172.209639 170.599379,173.501526 169.590564,173.479059 Z" id="path510-path" fill="#FFFFFF"></path>
                </g>
            </g>
        </g>
    </g>
</svg>